<svg width="158" height="166" viewBox="0 0 158 166" fill="none" xmlns="http://www.w3.org/2000/svg">
<path d="M56.4443 15.2358C56.4443 21.4645 51.395 26.5138 45.1664 26.5138C38.9377 26.5138 33.8884 21.4645 33.8884 15.2358C33.8884 9.00721 38.9377 3.95791 45.1664 3.95791C51.395 3.95791 56.4443 9.00721 56.4443 15.2358Z" fill="#0051AF"/>
<path d="M124.112 15.2358C124.112 21.4645 119.062 26.5138 112.834 26.5138C106.605 26.5138 101.556 21.4645 101.556 15.2358C101.556 9.00721 106.605 3.95791 112.834 3.95791C119.062 3.95791 124.112 9.00721 124.112 15.2358Z" fill="#0051AF"/>
<path d="M90.278 49.0696C90.278 55.2982 85.2287 60.3475 79.0001 60.3475C72.7715 60.3475 67.7222 55.2982 67.7222 49.0696C67.7222 42.841 72.7715 37.7917 79.0001 37.7917C85.2287 37.7917 90.278 42.841 90.278 49.0696Z" fill="#0051AF"/>
<path d="M157.946 150.571C157.946 156.799 152.896 161.849 146.668 161.849C140.439 161.849 135.39 156.799 135.39 150.571C135.39 144.342 140.439 139.293 146.668 139.293C152.896 139.293 157.946 144.342 157.946 150.571Z" fill="#0051AF"/>
<path d="M90.278 116.737C90.278 122.966 85.2287 128.015 79.0001 128.015C72.7715 128.015 67.7222 122.966 67.7222 116.737C67.7222 110.508 72.7715 105.459 79.0001 105.459C85.2287 105.459 90.278 110.508 90.278 116.737Z" fill="#0051AF"/>
<path d="M22.6105 116.737C22.6105 122.966 17.5612 128.015 11.3326 128.015C5.10398 128.015 0.0546875 122.966 0.0546875 116.737C0.0546875 110.508 5.10398 105.459 11.3326 105.459C17.5612 105.459 22.6105 110.508 22.6105 116.737Z" fill="#0051AF"/>
<path d="M22.6105 150.571C22.6105 156.799 17.5612 161.849 11.3326 161.849C5.10398 161.849 0.0546875 156.799 0.0546875 150.571C0.0546875 144.342 5.10398 139.293 11.3326 139.293C17.5612 139.293 22.6105 144.342 22.6105 150.571Z" fill="#0051AF"/>
<path d="M22.6105 82.9033C22.6105 89.132 17.5612 94.1813 11.3326 94.1813C5.10398 94.1813 0.0546875 89.132 0.0546875 82.9033C0.0546875 76.6747 5.10398 71.6254 11.3326 71.6254C17.5612 71.6254 22.6105 76.6747 22.6105 82.9033Z" fill="#0051AF"/>
<path d="M157.946 116.737C157.946 122.966 152.896 128.015 146.668 128.015C140.439 128.015 135.39 122.966 135.39 116.737C135.39 110.508 140.439 105.459 146.668 105.459C152.896 105.459 157.946 110.508 157.946 116.737Z" fill="#0051AF"/>
<path d="M157.946 82.9033C157.946 89.132 152.896 94.1813 146.668 94.1813C140.439 94.1813 135.39 89.132 135.39 82.9033C135.39 76.6747 140.439 71.6254 146.668 71.6254C152.896 71.6254 157.946 76.6747 157.946 82.9033Z" fill="#0051AF"/>
<path d="M157.946 49.0696C157.946 55.2982 152.896 60.3475 146.668 60.3475C140.439 60.3475 135.39 55.2982 135.39 49.0696C135.39 42.841 140.439 37.7917 146.668 37.7917C152.896 37.7917 157.946 42.841 157.946 49.0696Z" fill="#0051AF"/>
<path d="M22.6105 49.0704C22.6105 55.299 17.5612 60.3483 11.3326 60.3483C5.10398 60.3483 0.0546875 55.299 0.0546875 49.0704C0.0546875 42.8418 5.10398 37.7925 11.3326 37.7925C17.5612 37.7925 22.6105 42.8418 22.6105 49.0704Z" fill="#0051AF"/>
<path d="M94.0373 15.2358C94.0373 23.5407 87.3049 30.2731 79.0001 30.2731C78.6904 30.2731 78.3828 30.2637 78.0777 30.2452C72.9428 29.9345 67.0501 29.8444 63.4125 33.482C59.7749 37.1195 59.865 43.0123 60.1758 48.1472C60.1942 48.4523 60.2036 48.7598 60.2036 49.0696C60.2036 57.3744 53.4712 64.1068 45.1664 64.1068C36.8615 64.1068 30.1291 57.3744 30.1291 49.0696C30.1291 40.7648 36.8615 34.0324 45.1664 34.0324C45.4763 34.0324 45.784 34.0417 46.0892 34.0602C51.2241 34.3711 57.1167 34.4613 60.7543 30.8237C64.3918 27.1862 64.3016 21.2935 63.9907 16.1587C63.9723 15.8534 63.9629 15.5457 63.9629 15.2358C63.9629 6.931 70.6953 0.198608 79.0001 0.198608C87.3049 0.198608 94.0373 6.931 94.0373 15.2358Z" fill="url(#paint0_linear_291_39995)"/>
<path d="M60.2036 82.9033C60.2036 91.2082 53.4712 97.9406 45.1664 97.9406C36.8615 97.9406 30.1291 91.2082 30.1291 82.9033C30.1291 74.5985 36.8615 67.8661 45.1664 67.8661C53.4712 67.8661 60.2036 74.5985 60.2036 82.9033Z" fill="url(#paint1_linear_291_39995)"/>
<path d="M60.2036 150.571C60.2036 158.876 53.4712 165.608 45.1664 165.608C36.8615 165.608 30.1291 158.876 30.1291 150.571C30.1291 142.266 36.8615 135.534 45.1664 135.534C53.4712 135.534 60.2036 142.266 60.2036 150.571Z" fill="url(#paint2_linear_291_39995)"/>
<path d="M93.543 86.7418C93.8333 85.6391 94.7768 84.783 95.917 84.783C97.0572 84.783 98.0007 85.6391 98.291 86.7418C99.9876 93.1872 105.856 97.9406 112.834 97.9406C121.139 97.9406 127.871 91.2082 127.871 82.9033C127.871 74.5985 121.139 67.8661 112.834 67.8661C105.856 67.8661 99.9876 72.6194 98.291 79.0649C98.0007 80.1675 97.0572 81.0237 95.917 81.0237C94.7768 81.0237 93.8333 80.1675 93.543 79.0649C91.8464 72.6194 85.9783 67.8661 79.0001 67.8661C70.6953 67.8661 63.9629 74.5985 63.9629 82.9033C63.9629 91.2082 70.6953 97.9406 79.0001 97.9406C85.9783 97.9406 91.8464 93.1872 93.543 86.7418Z" fill="url(#paint3_linear_291_39995)"/>
<path d="M112.834 131.774C121.139 131.774 127.871 125.042 127.871 116.737C127.871 108.432 121.139 101.7 112.834 101.7C104.529 101.7 97.7966 108.432 97.7966 116.737C97.7966 117.047 97.806 117.355 97.8245 117.66C98.1354 122.795 98.2255 128.687 94.588 132.325C90.9505 135.963 85.0578 135.872 79.923 135.561C79.6177 135.543 79.31 135.534 79.0001 135.534C70.6953 135.534 63.9629 142.266 63.9629 150.571C63.9629 158.876 70.6953 165.608 79.0001 165.608C87.3049 165.608 94.0373 158.876 94.0373 150.571C94.0373 150.261 94.028 149.954 94.0095 149.648C93.6988 144.514 93.6087 138.621 97.2463 134.983C100.884 131.346 106.777 131.436 111.911 131.746C112.217 131.765 112.524 131.774 112.834 131.774Z" fill="url(#paint4_linear_291_39995)"/>
<defs>
<linearGradient id="paint0_linear_291_39995" x1="127.871" y1="0.19861" x2="30.1291" y2="165.608" gradientUnits="userSpaceOnUse">
<stop stop-color="#209AE7"/>
<stop offset="1" stop-color="#47EAA9"/>
</linearGradient>
<linearGradient id="paint1_linear_291_39995" x1="127.871" y1="0.19861" x2="30.1291" y2="165.608" gradientUnits="userSpaceOnUse">
<stop stop-color="#209AE7"/>
<stop offset="1" stop-color="#47EAA9"/>
</linearGradient>
<linearGradient id="paint2_linear_291_39995" x1="127.871" y1="0.19861" x2="30.1291" y2="165.608" gradientUnits="userSpaceOnUse">
<stop stop-color="#209AE7"/>
<stop offset="1" stop-color="#47EAA9"/>
</linearGradient>
<linearGradient id="paint3_linear_291_39995" x1="127.871" y1="0.19861" x2="30.1291" y2="165.608" gradientUnits="userSpaceOnUse">
<stop stop-color="#209AE7"/>
<stop offset="1" stop-color="#47EAA9"/>
</linearGradient>
<linearGradient id="paint4_linear_291_39995" x1="127.871" y1="0.19861" x2="30.1291" y2="165.608" gradientUnits="userSpaceOnUse">
<stop stop-color="#209AE7"/>
<stop offset="1" stop-color="#47EAA9"/>
</linearGradient>
</defs>
</svg>
