<?xml version="1.0" standalone="no"?>
<!DOCTYPE svg PUBLIC "-//W3C//DTD SVG 1.1//EN" "http://www.w3.org/Graphics/SVG/1.1/DTD/svg11.dtd" >
<svg xmlns="http://www.w3.org/2000/svg">
<metadata>Generated by IcoMoon</metadata>
<defs>
<font id="icomoon" horiz-adv-x="1024">
<font-face units-per-em="1024" ascent="960" descent="-64" />
<missing-glyph horiz-adv-x="1024" />
<glyph unicode="&#x20;" horiz-adv-x="512" d="" />
<glyph unicode="&#xe900;" d="M106.667 597.333c0 141.385 114.615 256 256 256h298.667c141.385 0 256-114.615 256-256v-298.667c0-141.385-114.615-256-256-256h-298.667c-141.385 0-256 114.615-256 256v298.667z" />
<glyph unicode="&#xe901;" d="M469.333 266.667v181.333c0 23.565 19.102 42.667 42.667 42.667s42.667-19.102 42.667-42.667v-181.333c0-23.565-19.102-42.667-42.667-42.667s-42.667 19.102-42.667 42.667z" />
<glyph unicode="&#xe902;" d="M565.333 608c0-29.455-23.876-53.333-53.333-53.333s-53.333 23.878-53.333 53.333c0 29.455 23.876 53.333 53.333 53.333s53.333-23.878 53.333-53.333z" />
<glyph unicode="&#xe903;" d="M458.253 853.98c33.212 19.374 74.283 19.374 107.494 0l277.333-161.778c32.768-19.116 52.919-54.199 52.919-92.136v-304.134c0-37.939-20.151-73.020-52.919-92.134l-277.333-161.779c-33.212-19.375-74.283-19.375-107.494 0l-277.332 161.779c-32.77 19.115-52.92 54.195-52.92 92.134v304.134c0 37.937 20.151 73.021 52.92 92.136l277.332 161.778z" />
<glyph unicode="&#xe904;" d="M469.333 426.667v181.333c0 23.564 19.102 42.667 42.667 42.667s42.667-19.103 42.667-42.667v-181.333c0-23.565-19.102-42.667-42.667-42.667s-42.667 19.102-42.667 42.667z" />
<glyph unicode="&#xe905;" d="M565.333 277.333c0-29.457-23.876-53.333-53.333-53.333s-53.333 23.876-53.333 53.333c0 29.457 23.876 53.333 53.333 53.333s53.333-23.876 53.333-53.333z" />
<glyph unicode="&#xe906;" d="M928 448c0-229.751-186.249-416-416-416s-416 186.249-416 416c0 229.751 186.249 416 416 416s416-186.249 416-416z" />
<glyph unicode="&#xe907;" d="M702.165 584.841c16.666-16.66 16.67-43.675 0.009-60.34l-223.932-223.996c-16.657-16.661-43.665-16.67-60.333-0.017l-96.068 95.996c-16.669 16.657-16.679 43.674-0.023 60.339 16.656 16.67 43.671 16.683 60.34 0.026l65.893-65.843 193.775 193.827c16.661 16.665 43.674 16.669 60.339 0.009z" />
<glyph unicode="&#xe908;" d="M419.188 774.752c40.852 72.143 144.784 72.143 185.637 0l318.349-562.196c40.269-71.104-11.102-159.223-92.817-159.223h-636.701c-81.716 0-133.084 88.119-92.818 159.223l318.351 562.196z" />
<glyph unicode="&#xe909;" d="M469.333 373.333v181.333c0 23.564 19.102 42.667 42.667 42.667s42.667-19.103 42.667-42.667v-181.333c0-23.565-19.102-42.667-42.667-42.667s-42.667 19.102-42.667 42.667z" />
<glyph unicode="&#xe90a;" d="M565.333 224c0-29.457-23.876-53.333-53.333-53.333s-53.333 23.876-53.333 53.333c0 29.457 23.876 53.333 53.333 53.333s53.333-23.876 53.333-53.333z" />
<glyph unicode="&#xe90b;" glyph-name="ArrowDown" d="M512 848c26.509 0 48-21.49 48-48v-704c0-26.509-21.491-48-48-48s-48 21.491-48 48v704c0 26.51 21.491 48 48 48zM190.059 417.942c18.745 18.742 49.137 18.742 67.882 0l254.059-254.061 254.058 254.061c18.746 18.742 49.139 18.742 67.885 0 18.742-18.746 18.742-49.139 0-67.885l-288-288c-18.746-18.742-49.139-18.742-67.885 0l-287.999 288c-18.745 18.746-18.745 49.139 0 67.885z" />
<glyph unicode="&#xe90c;" glyph-name="ArrowLeft" d="M112 448c0 26.509 21.49 48 48 48h704c26.509 0 48-21.491 48-48s-21.491-48-48-48h-704c-26.51 0-48 21.491-48 48zM481.942 769.941c18.742-18.745 18.742-49.137 0-67.882l-254.060-254.059 254.060-254.058c18.742-18.746 18.742-49.139 0-67.885-18.746-18.742-49.139-18.742-67.885 0l-287.999 288c-18.745 18.746-18.745 49.139 0 67.885l287.999 287.999c18.746 18.745 49.139 18.745 67.885 0z" />
<glyph unicode="&#xe90d;" glyph-name="ArrowRight" d="M112 448c0 26.509 21.49 48 48 48h704c26.509 0 48-21.491 48-48s-21.491-48-48-48h-704c-26.51 0-48 21.491-48 48zM542.058 769.941c18.746 18.745 49.139 18.745 67.885 0l288-287.999c18.742-18.746 18.742-49.139 0-67.885l-288-288c-18.746-18.742-49.139-18.742-67.885 0-18.742 18.746-18.742 49.139 0 67.885l254.061 254.058-254.061 254.059c-18.742 18.745-18.742 49.137 0 67.882z" />
<glyph unicode="&#xe90e;" glyph-name="ArrowSquareOut" d="M576 800.006c0.003 26.51 21.498 47.997 48.006 47.994l239.968-0.032c26.506-0.004 47.99-21.489 47.994-47.994l0.032-239.968c0.003-26.509-21.485-48.003-47.994-48.006s-48.003 21.485-48.006 47.994l-0.026 191.981-191.981 0.026c-26.509 0.004-47.997 21.497-47.994 48.006zM897.824 833.827c18.746-18.745 18.746-49.137 0-67.882l-288-287.999c-18.746-18.746-49.136-18.746-67.882 0s-18.746 49.136 0 67.882l288 288c18.746 18.745 49.136 18.745 67.882 0zM208 624h240c26.509 0 48 21.49 48 48s-21.491 48-48 48h-256c-21.217 0-41.566-8.428-56.569-23.431s-23.431-35.351-23.431-56.569v-512c0-21.216 8.428-41.565 23.431-56.57 15.003-15.002 35.351-23.43 56.569-23.43h512c21.216 0 41.565 8.429 56.57 23.43 15.002 15.005 23.43 35.354 23.43 56.57v256c0 26.509-21.491 48-48 48s-48-21.491-48-48v-240h-480v480z" />
<glyph unicode="&#xe90f;" glyph-name="ArrowUp" d="M512 848c26.509 0 48-21.49 48-48v-704c0-26.509-21.491-48-48-48s-48 21.491-48 48v704c0 26.51 21.491 48 48 48zM478.058 833.941c18.746 18.745 49.139 18.745 67.885 0l288-287.999c18.742-18.746 18.742-49.139 0-67.885-18.746-18.742-49.139-18.742-67.885 0l-254.058 254.060-254.059-254.060c-18.745-18.742-49.137-18.742-67.882 0-18.745 18.746-18.745 49.139 0 67.885l287.999 287.999z" />
<glyph unicode="&#xe910;" glyph-name="Bell" d="M195.875 144c-1.377 0.006-2.751 0.045-4.122 0.122-12.6 0.688-24.881 4.349-35.826 10.704-12.122 7.043-22.181 17.146-29.17 29.299s-10.66 25.93-10.647 39.949c0.012 14.019 3.708 27.789 10.718 39.93l0.028 0.051c21.414 36.986 49.94 111.549 49.94 247.949v31.968l0.066 0.099c1.473 138.83 86.441 259.871 208.091 310.582l0.202 0.298c17.779 7.285 36.109 13.012 54.781 17.141 22.451 5.003 45.776 7.726 69.744 7.908l0.096-0.002c1.494 0.012 2.992 0.013 4.486 0.005l0.099-0.001c185.629-1.406 332.835-155.302 332.835-339.599v-28.4c0-136.4 28.528-210.963 49.939-247.949l0.029-0.051c7.011-12.141 10.707-25.91 10.72-39.93s-3.661-27.795-10.65-39.949c-6.986-12.154-17.046-22.256-29.168-29.299-12.122-7.040-25.882-10.771-39.901-10.822h-140.893c-3.725-40.813-21.61-79.238-50.822-108.454-33.008-33.005-77.773-51.549-124.451-51.549s-91.443 18.544-124.451 51.549c-29.213 29.216-47.098 67.642-50.819 108.451h-140.855zM433.616 144.003c3.114-15.258 10.64-29.398 21.814-40.573 15.005-15.002 35.354-23.43 56.57-23.43s41.565 8.429 56.57 23.43c11.174 11.174 18.701 25.315 21.814 40.573h-156.768zM513.68 784.004c-10.56 0.057-21.091-0.585-31.523-1.913-117.862-15.142-209.313-118.101-209.313-241.692v-28.4c0-129.757-23.552-215.99-50.226-271.997h578.807c-26.675 56.003-50.227 142.24-50.227 272v28.4c0 133.288-106.368 242.581-237.517 243.601z" />
<glyph unicode="&#xe911;" glyph-name="CalendarBlank" d="M208 752v-608h608v608h-608zM112 768c0 44.183 35.817 80 80 80h640c44.182 0 80-35.817 80-80v-640c0-44.182-35.818-80-80-80h-640c-44.183 0-80 35.818-80 80v640zM704 928c26.509 0 48-21.49 48-48v-80c0-26.51-21.491-48-48-48s-48 21.49-48 48v80c0 26.51 21.491 48 48 48zM320 928c26.509 0 48-21.49 48-48v-80c0-26.51-21.491-48-48-48s-48 21.49-48 48v80c0 26.51 21.49 48 48 48zM112 608c0 26.509 21.49 48 48 48h704c26.509 0 48-21.491 48-48s-21.491-48-48-48h-704c-26.51 0-48 21.491-48 48z" />
<glyph unicode="&#xe912;" glyph-name="CaretDoubleLeft" d="M833.942 801.941c18.742-18.745 18.742-49.137 0-67.882l-286.061-286.059 286.061-286.058c18.742-18.746 18.742-49.139 0-67.885-18.746-18.742-49.139-18.742-67.885 0l-320 320c-18.742 18.746-18.742 49.139 0 67.885l320 319.999c18.746 18.745 49.139 18.745 67.885 0zM513.942 801.941c18.742-18.745 18.742-49.137 0-67.882l-286.060-286.059 286.060-286.058c18.742-18.746 18.742-49.139 0-67.885-18.746-18.742-49.139-18.742-67.885 0l-319.999 320c-18.745 18.746-18.745 49.139 0 67.885l319.999 319.999c18.746 18.745 49.139 18.745 67.885 0z" />
<glyph unicode="&#xe913;" glyph-name="CaretDoubleRight" d="M190.059 801.941c18.745 18.745 49.137 18.745 67.882 0l320.001-319.999c18.742-18.746 18.742-49.139 0-67.885l-320.001-320c-18.745-18.742-49.137-18.742-67.882 0-18.745 18.746-18.745 49.139 0 67.885l286.060 286.058-286.060 286.059c-18.745 18.745-18.745 49.137 0 67.882zM510.058 801.941c18.746 18.745 49.139 18.745 67.885 0l320-319.999c18.742-18.746 18.742-49.139 0-67.885l-320-320c-18.746-18.742-49.139-18.742-67.885 0-18.742 18.746-18.742 49.139 0 67.885l286.061 286.058-286.061 286.059c-18.742 18.745-18.742 49.137 0 67.882z" />
<glyph unicode="&#xe914;" glyph-name="CaretDown" d="M158.059 609.942c18.745 18.742 49.137 18.742 67.882 0l286.059-286.061 286.058 286.061c18.746 18.742 49.139 18.742 67.885 0 18.742-18.746 18.742-49.139 0-67.885l-320-320c-18.746-18.742-49.139-18.742-67.885 0l-319.999 320c-18.745 18.746-18.745 49.139 0 67.885z" />
<glyph unicode="&#xe915;" glyph-name="CaretLeft" d="M673.942 801.941c18.742-18.745 18.742-49.137 0-67.882l-286.061-286.059 286.061-286.058c18.742-18.746 18.742-49.139 0-67.885-18.746-18.742-49.139-18.742-67.885 0l-319.999 320c-18.745 18.746-18.745 49.139 0 67.885l319.999 319.999c18.746 18.745 49.139 18.745 67.885 0z" />
<glyph unicode="&#xe916;" glyph-name="CaretRight" d="M350.058 801.941c18.746 18.745 49.139 18.745 67.885 0l320-319.999c18.742-18.746 18.742-49.139 0-67.885l-320-320c-18.746-18.742-49.139-18.742-67.885 0-18.742 18.746-18.742 49.139 0 67.885l286.061 286.058-286.061 286.059c-18.742 18.745-18.742 49.137 0 67.882z" />
<glyph unicode="&#xe917;" glyph-name="CaretUp" d="M478.058 673.941c18.746 18.745 49.139 18.745 67.885 0l320-319.999c18.742-18.746 18.742-49.139 0-67.885-18.746-18.742-49.139-18.742-67.885 0l-286.058 286.061-286.059-286.061c-18.745-18.742-49.137-18.742-67.882 0-18.745 18.746-18.745 49.139 0 67.885l319.999 319.999z" />
<glyph unicode="&#xe918;" glyph-name="Check" d="M897.942 705.941c18.742-18.745 18.742-49.137 0-67.884l-448-448c-18.746-18.742-49.139-18.742-67.885 0l-223.999 224c-18.745 18.746-18.745 49.139 0 67.885 18.745 18.742 49.137 18.742 67.882 0l190.059-190.061 414.058 414.060c18.746 18.745 49.139 18.745 67.885 0z" />
<glyph unicode="&#xe919;" glyph-name="CheckCircle" d="M721.133 509.27c19.181 18.298 19.898 48.682 1.597 67.862-18.298 19.181-48.682 19.898-67.862 1.597l-201.638-192.365-84.067 80.336c-19.165 18.317-49.548 17.626-67.864-1.539s-17.626-49.549 1.54-67.862l117.201-112c18.541-17.722 47.738-17.734 66.294-0.029l234.8 224zM512 880c-238.587 0-432-193.413-432-432s193.413-432 432-432c238.586 0 432 193.414 432 432s-193.414 432-432 432zM176 448c0 185.568 150.432 336 336 336s336-150.432 336-336c0-185.568-150.432-336-336-336s-336 150.432-336 336z" />
<glyph unicode="&#xe91a;" glyph-name="Clock" d="M512 784c-185.568 0-336-150.432-336-336s150.432-336 336-336c185.568 0 336 150.432 336 336s-150.432 336-336 336zM80 448c0 238.587 193.413 432 432 432s432-193.413 432-432c0-238.586-193.414-432-432-432s-432 193.414-432 432zM512 720c26.509 0 48-21.49 48-48v-176h176c26.509 0 48-21.491 48-48s-21.491-48-48-48h-224c-26.509 0-48 21.491-48 48v224c0 26.51 21.491 48 48 48z" />
<glyph unicode="&#xe91b;" glyph-name="Copy" d="M870.874 851.062h-512c-12.73 0-24.938-5.057-33.939-14.059s-14.060-21.211-14.060-33.941v-144h-144c-12.73 0-24.939-5.057-33.941-14.059-9.002-9-14.059-21.212-14.059-33.941v-512c0-12.73 5.057-24.941 14.059-33.942s21.211-14.058 33.941-14.058h511.999c12.733 0 24.941 5.056 33.942 14.058s14.058 21.213 14.058 33.942v144h144c12.733 0 24.941 5.056 33.942 14.058s14.058 21.213 14.058 33.942v512c0 12.731-5.056 24.94-14.058 33.941s-21.21 14.059-33.942 14.059zM630.874 147.062h-415.999v416h415.999v-416zM822.874 339.062h-96v272c0 12.73-5.056 24.941-14.058 33.941-9.002 9.002-21.21 14.059-33.942 14.059h-272v96h416v-416z" />
<glyph unicode="&#xe91c;" glyph-name="Crosshair" d="M512 928c-26.509 0-48-21.49-48-48v-34.851c-182.545-21.831-327.319-166.604-349.149-349.149h-34.851c-26.51 0-48-21.491-48-48s21.49-48 48-48h34.851c21.831-182.544 166.604-327.318 349.149-349.149v-34.851c0-26.509 21.491-48 48-48s48 21.491 48 48v34.851c182.544 21.83 327.318 166.605 349.149 349.149h34.851c26.509 0 48 21.491 48 48s-21.491 48-48 48h-34.851c-21.83 182.546-166.605 327.319-349.149 349.149v34.851c0 26.51-21.491 48-48 48zM812.23 496h-12.23c-26.509 0-48-21.491-48-48s21.491-48 48-48h12.23c-20.531-129.453-122.778-231.699-252.23-252.23v12.23c0 26.509-21.491 48-48 48s-48-21.491-48-48v-12.23c-129.453 20.531-231.699 122.778-252.232 252.23h12.232c26.51 0 48 21.491 48 48s-21.49 48-48 48h-12.232c20.533 129.453 122.779 231.699 252.232 252.232v-12.232c0-26.51 21.491-48 48-48s48 21.49 48 48v12.232c129.453-20.533 231.699-122.779 252.23-252.232z" />
<glyph unicode="&#xe91d;" glyph-name="DotsSix" d="M352 656c35.347 0 64 28.654 64 64s-28.653 64-64 64c-35.346 0-64-28.654-64-64s28.654-64 64-64zM624 656c35.347 0 64 28.654 64 64s-28.653 64-64 64c-35.347 0-64-28.654-64-64s28.653-64 64-64zM352 384c35.347 0 64 28.653 64 64s-28.653 64-64 64c-35.346 0-64-28.653-64-64s28.654-64 64-64zM624 384c35.347 0 64 28.653 64 64s-28.653 64-64 64c-35.347 0-64-28.653-64-64s28.653-64 64-64zM352 112c35.347 0 64 28.653 64 64s-28.653 64-64 64c-35.346 0-64-28.653-64-64s28.654-64 64-64zM624 112c35.347 0 64 28.653 64 64s-28.653 64-64 64c-35.347 0-64-28.653-64-64s28.653-64 64-64z" />
<glyph unicode="&#xe91e;" glyph-name="DotsThree" d="M512 384c35.347 0 64 28.653 64 64s-28.653 64-64 64c-35.347 0-64-28.653-64-64s28.653-64 64-64zM256 384c35.346 0 64 28.653 64 64s-28.654 64-64 64c-35.346 0-64-28.653-64-64s28.654-64 64-64zM768 384c35.347 0 64 28.653 64 64s-28.653 64-64 64c-35.347 0-64-28.653-64-64s28.653-64 64-64z" />
<glyph unicode="&#xe91f;" glyph-name="DotsThreeVertical" d="M512 640c35.347 0 64 28.654 64 64s-28.653 64-64 64c-35.347 0-64-28.654-64-64s28.653-64 64-64zM512 384c35.347 0 64 28.653 64 64s-28.653 64-64 64c-35.347 0-64-28.653-64-64s28.653-64 64-64zM512 128c35.347 0 64 28.653 64 64s-28.653 64-64 64c-35.347 0-64-28.653-64-64s28.653-64 64-64z" />
<glyph unicode="&#xe920;" glyph-name="DownloadSimple" d="M512 848c26.509 0 48-21.49 48-48v-332.118l86.058 86.061c18.746 18.742 49.139 18.742 67.885 0 18.742-18.746 18.742-49.139 0-67.885l-168-168c-9.373-9.373-21.658-14.058-33.942-14.058-6.509 0-12.714 1.296-18.374 3.642-5.661 2.342-10.963 5.814-15.568 10.416l-167.999 168c-18.745 18.746-18.745 49.139 0 67.885 18.744 18.742 49.138 18.742 67.884 0l86.058-86.061v332.118c0 26.51 21.491 48 48 48zM208 352c0 26.509-21.49 48-48 48s-48-21.491-48-48v-224c0-21.216 8.428-41.565 23.431-56.57 15.003-15.002 35.351-23.43 56.569-23.43h640c21.216 0 41.565 8.429 56.57 23.43 15.002 15.005 23.43 35.354 23.43 56.57v224c0 26.509-21.491 48-48 48s-48-21.491-48-48v-208h-608v208z" />
<glyph unicode="&#xe921;" glyph-name="DropdownCaretDown" d="M248.402 567.597c21.869 21.872 57.327 21.872 79.195 0l184.403-184.4 184.403 184.4c21.869 21.872 57.325 21.872 79.194 0 21.872-21.869 21.872-57.325 0-79.194l-224-224c-21.869-21.872-57.325-21.872-79.194 0l-224.001 224c-21.869 21.869-21.869 57.325 0 79.194z" />
<glyph unicode="&#xe922;" glyph-name="DropdownCaretRight" d="M360.403 184.403c-21.872 21.869-21.872 57.325 0 79.194l184.4 184.403-184.4 184.403c-21.872 21.868-21.872 57.325 0 79.195 21.869 21.869 57.325 21.869 79.194 0l224-224.001c21.872-21.869 21.872-57.325 0-79.194l-224-224c-21.869-21.872-57.325-21.872-79.194 0z" />
<glyph unicode="&#xe923;" glyph-name="DropdownCaretUp" d="M775.597 264.403c-21.869-21.872-57.325-21.872-79.194 0l-184.403 184.4-184.403-184.4c-21.868-21.872-57.325-21.872-79.195 0-21.869 21.869-21.869 57.325 0 79.194l224.001 224c21.869 21.872 57.325 21.872 79.194 0l224-224c21.872-21.869 21.872-57.325 0-79.194z" />
<glyph unicode="&#xe924;" glyph-name="EnvelopeSimple" d="M80 736c0 26.51 21.49 48 48 48h768c26.509 0 48-21.49 48-48v-544c0-21.216-8.429-41.565-23.43-56.57-15.005-15.002-35.354-23.43-56.57-23.43h-704c-21.217 0-41.565 8.429-56.569 23.43-15.003 15.005-23.431 35.354-23.431 56.57v544zM176 688v-480h672v480h-672zM92.617 768.435c17.913 19.542 48.276 20.862 67.818 2.948l351.565-322.269 351.565 322.269c19.542 17.913 49.907 16.593 67.818-2.948 17.914-19.542 16.595-49.905-2.947-67.818l-384-351.999c-18.352-16.822-46.518-16.822-64.87 0l-383.999 351.999c-19.542 17.913-20.862 48.276-2.948 67.818z" />
<glyph unicode="&#xe925;" glyph-name="Eye" d="M134.057 625.955c-39.073-39.078-67.228-78.070-85.677-107.376-9.248-14.691-16.126-27.056-20.775-35.933-2.326-4.442-4.1-8.019-5.337-10.589-0.619-1.286-1.105-2.323-1.459-3.088l-0.433-0.947-0.143-0.317-0.053-0.118-0.022-0.051c-0.010-0.022-0.019-0.042 43.845-19.536-43.862-19.498-43.853-19.517-43.843-19.539l0.022-0.051 0.197-0.435 0.433-0.947c0.354-0.765 0.84-1.802 1.459-3.085 1.238-2.573 3.011-6.15 5.338-10.589 4.649-8.877 11.527-21.238 20.776-35.926 18.45-29.299 46.605-68.285 85.679-107.354 78.424-78.416 201.978-158.042 377.939-158.042s299.514 79.626 377.939 158.042c39.072 39.069 67.229 78.054 85.68 107.354 9.248 14.688 16.125 27.050 20.774 35.926 2.326 4.438 4.099 8.016 5.338 10.589 0.621 1.283 1.104 2.32 1.459 3.085l0.432 0.947 0.144 0.317 0.054 0.118 0.022 0.051c0.010 0.022 0.019 0.042-43.843 19.539 43.862 19.494 43.856 19.514 43.843 19.536l-0.022 0.051-0.051 0.118-0.144 0.317-0.432 0.947c-0.355 0.765-0.842 1.802-1.459 3.088-1.238 2.57-3.011 6.147-5.338 10.589-4.65 8.877-11.526 21.242-20.778 35.933-18.448 29.306-46.605 68.298-85.677 107.376-78.422 78.431-201.978 158.076-377.942 158.076s-299.52-79.645-377.943-158.076zM64 448l-43.864 19.494c-5.516-12.413-5.515-26.579 0.002-38.992l43.862 19.498zM118.028 448.003c3.126 5.555 6.982 12.106 11.592 19.427 15.55 24.701 39.396 57.715 72.323 90.646 65.577 65.584 166.022 129.955 310.057 129.955s244.48-64.371 310.058-129.955c32.928-32.931 56.771-65.946 72.323-90.646 4.608-7.322 8.464-13.872 11.59-19.427-3.126-5.552-6.982-12.102-11.59-19.421-15.549-24.694-39.392-57.699-72.32-90.624-65.574-65.568-166.022-129.926-310.061-129.926s-244.485 64.358-310.061 129.926c-32.926 32.925-56.771 65.93-72.321 90.624-4.608 7.318-8.464 13.869-11.589 19.421zM960 448l43.862-19.498c5.517 12.413 5.517 26.579 0 38.992l-43.862-19.494zM512 528c-44.182 0-80-35.818-80-80s35.818-80 80-80c44.182 0 80 35.818 80 80s-35.818 80-80 80zM336 448c0 97.203 78.797 176 176 176s176-78.797 176-176c0-97.203-78.797-176-176-176s-176 78.797-176 176z" />
<glyph unicode="&#xe926;" glyph-name="EyeSlash" d="M159.712 835.517c19.616 17.832 49.973 16.387 67.805-3.229l640-704c17.834-19.616 16.387-49.974-3.229-67.805-19.616-17.834-49.971-16.387-67.805 3.229l-640 703.999c-17.832 19.616-16.387 49.973 3.229 67.805zM338.8 707.311c11.978-23.65 2.512-52.531-21.137-64.508-73.262-37.101-126.030-90.87-160.727-136.154-17.268-22.538-29.794-42.624-37.906-56.877-0.342-0.602-0.676-1.19-1.002-1.77 3.126-5.555 6.981-12.102 11.589-19.421 15.55-24.694 39.395-57.702 72.321-90.624 65.576-65.568 166.022-129.926 310.061-129.926h0.381c67.354-0.538 133.866 14.973 194.032 45.254 23.68 11.917 52.538 2.381 64.454-21.299s2.381-52.538-21.299-64.454c-73.728-37.104-155.226-56.128-237.757-55.501-175.862 0.058-299.355 79.654-377.75 158.042-39.074 39.069-67.229 78.054-85.679 107.354-9.249 14.688-16.127 27.050-20.776 35.923-2.326 4.442-4.1 8.019-5.338 10.589-0.619 1.286-1.105 2.323-1.459 3.088l-0.433 0.947-0.197 0.435-0.022 0.051c-0.010 0.022-0.019 0.042 43.843 19.539-43.864 19.491-43.857 19.507-43.85 19.523l0.051 0.115 0.091 0.202 0.261 0.573c0.209 0.458 0.488 1.062 0.838 1.805 0.7 1.488 1.686 3.536 2.964 6.090 2.555 5.104 6.284 12.24 11.243 20.954 9.903 17.398 24.795 41.232 45.136 67.779 40.523 52.883 103.743 117.925 193.558 163.408 23.65 11.976 52.53 2.513 64.508-21.137zM64 448l-43.864 19.491c-5.516-12.41-5.515-26.576 0.002-38.989l43.862 19.498zM463.917 781.996c15.677 1.363 31.706 2.036 48.083 2.036 175.965 0 299.52-79.645 377.942-158.076 39.072-39.078 67.229-78.074 85.677-107.379 9.248-14.688 16.128-27.053 20.778-35.93 2.326-4.442 4.099-8.019 5.338-10.592 0.618-1.283 1.104-2.32 1.459-3.085l0.432-0.947 0.144-0.317 0.074-0.17c0.013-0.022 0.019-0.045-43.843-19.536 43.862-19.498 43.859-19.507 43.853-19.517l-0.083-0.189-0.144-0.317-0.426-0.934c-0.352-0.755-0.829-1.776-1.44-3.043-1.219-2.538-2.97-6.064-5.261-10.445-4.579-8.755-11.354-20.954-20.461-35.459-18.166-28.934-45.878-67.475-84.32-106.237-18.666-18.822-49.059-18.95-67.882-0.282-18.822 18.666-18.947 49.059-0.282 67.882 32.406 32.678 55.875 65.309 71.178 89.683 4.454 7.091 8.192 13.45 11.238 18.861-3.126 5.555-6.982 12.106-11.59 19.427-15.552 24.701-39.395 57.715-72.323 90.646-65.578 65.584-166.022 129.954-310.058 129.954-13.754 0-27.005-0.564-39.763-1.675-26.41-2.297-49.683 17.251-51.981 43.66-2.294 26.41 17.251 49.682 43.661 51.979zM916.186 428.394c0.006-0.016 0.010-0.019 0 0v0zM960 448l43.853-19.517c5.517 12.41 5.526 26.598 0.010 39.008l-43.862-19.491z" />
<glyph unicode="&#xe927;" glyph-name="FunnelSimple" d="M208 448c0 26.509 21.49 48 48 48h512c26.509 0 48-21.491 48-48s-21.491-48-48-48h-512c-26.51 0-48 21.491-48 48zM48 640c0 26.51 21.49 48 48 48h832c26.509 0 48-21.49 48-48s-21.491-48-48-48h-832c-26.51 0-48 21.491-48 48zM368 256c0 26.509 21.491 48 48 48h192c26.509 0 48-21.491 48-48s-21.491-48-48-48h-192c-26.509 0-48 21.491-48 48z" />
<glyph unicode="&#xe928;" glyph-name="GearSix" d="M512 576c-70.691 0-128-57.306-128-128 0-70.691 57.309-128 128-128s128 57.309 128 128c0 70.694-57.309 128-128 128zM288 448c0 123.712 100.288 224 224 224s224-100.288 224-224c0-123.712-100.288-224-224-224s-224 100.288-224 224zM379.798 791.741l82.682-49.683c8.467-5.086 18.294-7.438 28.144-6.735 14.522 1.037 29.037 1.037 43.562 0 9.85-0.703 19.677 1.648 28.141 6.735l82.838 49.776c35.331-13.525 68.64-32.54 98.733-56.813l-1.488-96.682c-0.154-9.939 2.784-19.683 8.406-27.882 8.288-12.086 15.386-24.291 21.408-37.005 4.294-9.062 11.318-16.554 20.083-21.421l84.070-46.662c5.853-37.555 6.070-76.198 0.042-113.914l-84.112-46.685c-8.765-4.867-15.789-12.358-20.083-21.421-6.022-12.714-13.12-24.918-21.408-37.005-5.622-8.198-8.56-17.942-8.406-27.882l1.482-96.349c-29.786-24.058-62.922-43.635-98.883-57.453l-82.682 49.683c-8.464 5.085-18.291 7.437-28.141 6.733-14.525-1.037-29.040-1.037-43.562 0-9.85 0.704-19.677-1.648-28.144-6.733l-82.835-49.776c-35.334 13.523-68.641 32.538-98.734 56.813l1.487 96.682c0.153 9.939-2.785 19.683-8.407 27.882-8.287 12.086-15.385 24.291-21.408 37.005-4.293 9.062-11.316 16.554-20.084 21.421l-84.070 46.662c-5.852 37.555-6.069 76.195-0.041 113.914l84.111 46.685c8.768 4.867 15.791 12.358 20.084 21.421 6.022 12.714 13.12 24.918 21.408 37.005 5.622 8.198 8.56 17.942 8.407 27.882l-1.482 96.349c29.788 24.056 62.924 43.636 98.882 57.452zM149.751 512.909c-0.015-0.086-0.030-0.176-0.046-0.262l0.046 0.262zM423.283 877.611c-21.664 13.673-47.005 14.716-68.25 7.327l-0.448-0.159c-52.524-18.855-99.815-47.035-141.027-81.6l-0.073-0.061c-18.948-15.957-28.681-38.849-28.681-61.916l0.005-0.738 1.373-89.262c-4.664-7.426-9.070-15.018-13.208-22.81l-78.386-43.514c-19.68-11.245-35.183-30.902-39.462-55.766-9.807-54.138-9.314-109.315-0.025-162.070 4.244-24.934 19.768-44.646 39.487-55.914l0.519-0.294 77.866-43.219c4.138-7.795 8.544-15.386 13.208-22.81l-1.366-88.784c-0.773-24.499 10.154-47.978 28.34-63.194 42.39-35.683 90.147-62.902 141.003-81.19l0.474-0.17c23.206-8.070 47.594-4.736 67.184 6.461 0.307 0.173 0.608 0.352 0.909 0.531l76.643 46.054c8.691-0.282 17.379-0.282 26.067 0l76.086-45.718c21.667-13.674 47.005-14.717 68.25-7.328l0.448 0.16c52.525 18.854 99.818 47.034 141.027 81.6l0.074 0.061c18.95 15.955 28.682 38.848 28.682 61.914l-0.006 0.739-1.373 89.264c4.666 7.424 9.072 15.014 13.21 22.81l78.384 43.514c19.68 11.245 35.184 30.902 39.462 55.766 9.808 54.138 9.315 109.312 0.026 162.064-4.243 24.938-19.766 44.653-39.488 55.92l-0.518 0.294-77.866 43.219c-4.138 7.792-8.544 15.384-13.21 22.81l1.366 88.783c0.774 24.502-10.157 47.983-28.349 63.2-42.387 35.679-90.141 62.896-140.992 81.185l-0.477 0.168c-23.203 8.071-47.59 4.735-67.184-6.46-0.304-0.174-0.608-0.352-0.909-0.532l-76.643-46.055c-8.688 0.283-17.376 0.283-26.067 0l-76.086 45.721z" />
<glyph unicode="&#xe929;" glyph-name="Info" d="M512 784c-185.568 0-336-150.432-336-336s150.432-336 336-336c185.568 0 336 150.432 336 336s-150.432 336-336 336zM80 448c0 238.587 193.413 432 432 432s432-193.413 432-432c0-238.586-193.414-432-432-432s-432 193.414-432 432zM431.997 480c0 26.509 21.491 48 48 48h32c26.512 0 48-21.491 48-48v-178.733c18.643-6.589 32-24.368 32-45.267 0-26.509-21.488-48-48-48h-32c-26.509 0-48 21.491-48 48v178.733c-18.643 6.589-32 24.368-32 45.267zM511.994 576c35.347 0 64 28.653 64 64s-28.653 64-64 64c-35.347 0-64-28.654-64-64s28.653-64 64-64z" />
<glyph unicode="&#xe92a;" glyph-name="Lightning" d="M645.917 954.703c19.091-9.798 29.36-31.076 25.152-52.118l-55.994-279.973 217.779-81.67c15.008-5.626 26.214-18.371 29.875-33.974 3.664-15.603-0.704-32.003-11.638-43.718l-448-480c-14.64-15.69-37.917-19.75-57.008-9.955-19.091 9.798-29.359 31.078-25.149 52.118l55.994 279.974-217.781 81.667c-15.006 5.629-26.214 18.374-29.876 33.978s0.704 32.003 11.639 43.718l447.999 480.001c14.643 15.687 37.917 19.751 57.008 9.953zM260.078 451.734l188.776-70.794c22.035-8.262 34.829-31.28 30.214-54.355l-30.861-154.301 283.715 303.978-188.778 70.794c-22.032 8.262-34.829 31.28-30.211 54.355l30.858 154.302-283.714-303.979z" />
<glyph unicode="&#xe92b;" glyph-name="ListBullets" d="M304 704c0 26.51 21.491 48 48 48h512c26.509 0 48-21.49 48-48s-21.491-48-48-48h-512c-26.509 0-48 21.49-48 48zM304.023 448c0 26.509 21.49 48 47.999 48h511.978c26.509 0 48-21.491 48-48s-21.491-48-48-48h-511.978c-26.509 0-47.999 21.491-47.999 48zM304.023 192c0 26.509 21.49 48 47.999 48h511.978c26.509 0 48-21.491 48-48s-21.491-48-48-48h-511.978c-26.509 0-47.999 21.491-47.999 48zM176 384c35.346 0 64 28.653 64 64s-28.654 64-64 64c-35.346 0-64-28.653-64-64s28.654-64 64-64zM176 640c35.346 0 64 28.654 64 64s-28.654 64-64 64c-35.346 0-64-28.654-64-64s28.654-64 64-64zM176 128c35.346 0 64 28.653 64 64s-28.654 64-64 64c-35.346 0-64-28.653-64-64s28.654-64 64-64z" />
<glyph unicode="&#xe92c;" glyph-name="Loader" d="M549.571 835.478c9.149 34.142 44.243 54.403 78.384 45.255 238.992-64.038 380.822-309.693 316.784-548.685-9.149-34.144-44.243-54.403-78.384-45.254-34.141 9.146-54.403 44.24-45.254 78.384 45.741 170.707-55.565 346.176-226.275 391.917-34.141 9.148-54.403 44.242-45.254 78.384z" />
<glyph unicode="&#xe92d;" glyph-name="Lock" d="M320 656v96c0 50.922 20.227 99.757 56.237 135.764 36.006 36.007 84.842 56.236 135.763 56.236s99.757-20.228 135.763-56.236c36.010-36.007 56.237-84.843 56.237-135.764v-96h128c44.182 0 80-35.818 80-80v-448c0-44.182-35.818-80-80-80h-640c-44.183 0-80 35.818-80 80v448c0 44.182 35.817 80 80 80h128zM444.118 819.882c18.003 18.004 42.422 28.118 67.882 28.118s49.878-10.114 67.882-28.118c18.003-18.004 28.118-42.421 28.118-67.882v-96h-192v96c0 25.461 10.115 49.879 28.118 67.882zM208 560v-416h608v416h-608zM512 288c35.347 0 64 28.653 64 64s-28.653 64-64 64c-35.347 0-64-28.653-64-64s28.653-64 64-64z" />
<glyph unicode="&#xe92e;" glyph-name="MagicWand" d="M879.994 496c26.512 0 48-21.488 48-48v-192c0-26.509-21.488-48-48-48-26.509 0-48 21.491-48 48v192c0 26.512 21.491 48 48 48zM735.994 352c0 26.512 21.491 48 48 48h192c26.512 0 48-21.488 48-48 0-26.509-21.488-48-48-48h-192c-26.509 0-48 21.491-48 48zM319.995 864.001c26.51 0 47.998-21.49 47.998-48v-160c0-26.51-21.488-48.001-47.998-48.001s-48 21.491-48 48.001v160c0 26.51 21.49 48 48 48zM191.995 736.001c0 26.51 21.49 48 48 48h159.998c26.512 0 48-21.49 48-48s-21.488-48-48-48h-159.998c-26.51 0-48 21.49-48 48zM655.994 256c26.512 0 48-21.488 48-48v-128c0-26.509-21.488-48-48-48-26.509 0-48 21.491-48 48v128c0 26.512 21.491 48 48 48zM543.994 144c0 26.512 21.491 48 48 48h128c26.512 0 48-21.488 48-48 0-26.509-21.488-48-48-48h-128c-26.509 0-48 21.491-48 48zM195.877 192l60.118-60.118 572.117 572.119-60.118 60.118-572.116-572.119zM116.682 135.434c-31.242 31.242-31.242 81.894 0 113.136l594.746 594.745c31.242 31.242 81.894 31.242 113.136 0l82.746-82.745c31.242-31.242 31.242-81.895 0-113.137l-594.745-594.744c-31.242-31.242-81.895-31.242-113.137 0l-82.745 82.746zM542.054 673.942c18.746 18.745 49.136 18.745 67.882 0l128-128c18.746-18.746 18.746-49.136 0-67.882s-49.136-18.746-67.882 0l-128 128c-18.746 18.746-18.746 49.136 0 67.881z" />
<glyph unicode="&#xe92f;" glyph-name="Magnet" d="M144 287.994v187.997c0 201.949 161.671 370.596 365.251 371.999 48.554 0.363 96.701-8.887 141.664-27.216 44.966-18.331 85.862-45.38 120.326-79.588s61.818-74.9 80.483-119.73c18.666-44.826 28.275-92.906 28.275-141.466v-352c0-21.216-8.429-41.565-23.43-56.57-15.005-15.002-35.354-23.43-56.57-23.43h-160c-21.216 0-41.565 8.429-56.57 23.434-15.002 15.002-23.43 35.35-23.43 56.566v352c0 12.73-5.056 24.941-14.058 33.942s-21.213 14.058-33.942 14.058c-12.73 0-24.941-5.056-33.942-14.058s-14.058-21.213-14.058-33.942v-352c0-21.216-8.429-41.565-23.43-56.566-15.005-15.005-35.354-23.434-56.57-23.434h-160c-21.217 0-41.566 8.429-56.569 23.434-15.003 15.002-23.431 35.35-23.431 56.566v160.003zM509.962 751.992c35.888 0.269 71.478-6.568 104.714-20.116 33.238-13.548 63.466-33.541 88.938-58.826 25.475-25.284 45.693-55.361 59.488-88.493 13.798-33.136 20.899-68.675 20.899-104.566v-143.997h-128v143.997c0 38.192-15.171 74.819-42.176 101.824s-63.632 42.176-101.824 42.176c-38.192 0-74.819-15.171-101.824-42.176s-42.176-63.632-42.176-101.824v-143.997h-128v139.997c0 150.842 120.723 274.987 269.926 276.002h0.035zM368 239.994v-96.003h-128v96.003h128zM656 239.994v-96.003h128v96.003h-128z" />
<glyph unicode="&#xe930;" glyph-name="MagnifyingGlass" d="M463.984 784c-159.058 0-288-128.942-288-288s128.942-288 288-288c159.059 0 288 128.941 288 288s-128.941 288-288 288zM79.984 496c0 212.077 171.923 384 384 384s384-171.923 384-384c0-212.077-171.923-384-384-384s-384 171.923-384 384zM667.616 292.339c18.746 18.746 49.139 18.746 67.885 0l194.4-194.403c18.746-18.742 18.746-49.136 0-67.882-18.742-18.746-49.136-18.746-67.882 0l-194.403 194.403c-18.742 18.746-18.742 49.136 0 67.882z" />
<glyph unicode="&#xe931;" glyph-name="MapTrifold" d="M430.566 811.642c6.429-25.718-9.206-51.779-34.925-58.208l-219.642-54.91v-477.045l196.358 49.088c25.718 6.429 51.779-9.206 58.208-34.925s-9.206-51.779-34.925-58.208l-256-64c-14.34-3.584-29.531-0.365-41.181 8.733s-18.46 23.053-18.46 37.834v576c0 22.026 14.99 41.225 36.358 46.567l256 64c25.718 6.429 51.779-9.207 58.208-34.925zM358.765 840.832c14.15 8.746 31.821 9.541 46.701 2.101l256-128c16.262-8.131 26.534-24.751 26.534-42.932v-576c0-16.637-8.614-32.086-22.765-40.832s-31.821-9.539-46.701-2.099l-256 128c-16.262 8.131-26.534 24.752-26.534 42.931v576c0 16.636 8.614 32.085 22.765 40.831zM432 722.335v-468.668l160-80v468.668l-160 80zM925.539 773.834c11.651-9.096 18.461-23.053 18.461-37.834v-576c0-22.026-14.989-41.226-36.358-46.566l-256-64c-25.718-6.429-51.779 9.206-58.208 34.925s9.206 51.779 34.925 58.208l219.642 54.912v477.045l-196.358-49.090c-25.718-6.429-51.779 9.206-58.208 34.925s9.206 51.779 34.925 58.208l256 64c14.339 3.585 29.53 0.364 41.181-8.733z" />
<glyph unicode="&#xe932;" glyph-name="Minus" d="M112 448c0 26.509 21.49 48 48 48h704c26.509 0 48-21.491 48-48s-21.491-48-48-48h-704c-26.51 0-48 21.491-48 48z" />
<glyph unicode="&#xe933;" glyph-name="Nav" d="M112 704c0 26.51 21.49 48 48 48h704c26.509 0 48-21.49 48-48s-21.491-48-48-48h-704c-26.51 0-48 21.49-48 48zM112 448c0 26.509 21.49 48 48 48h704c26.509 0 48-21.491 48-48s-21.491-48-48-48h-704c-26.51 0-48 21.491-48 48zM160 240c-26.51 0-48-21.491-48-48s21.49-48 48-48h704c26.509 0 48 21.491 48 48s-21.491 48-48 48h-704z" />
<glyph unicode="&#xe934;" glyph-name="Paperclip" d="M574.893 817.166c30.003 29.988 70.685 46.834 113.107 46.834 42.435 0 83.133-16.857 113.136-46.863 30.006-30.006 46.864-70.702 46.864-113.137s-16.858-83.133-46.864-113.136l-0.656-0.646-383.219-368.784c-19.101-18.381-49.488-17.798-67.872 1.302-18.381 19.101-17.798 49.488 1.306 67.869l382.842 368.423c11.827 11.974 18.464 28.131 18.464 44.972 0 16.974-6.742 33.252-18.746 45.255s-28.282 18.745-45.254 18.745c-16.973 0-33.251-6.743-45.254-18.745l-392.569-391.431c-0.008-0.010-0.016-0.016-0.024-0.026-26.99-27.002-42.153-63.619-42.153-101.798 0-38.192 15.172-74.819 42.177-101.824s63.632-42.176 101.823-42.176c38.192 0 74.819 15.171 101.824 42.176l328.234 327.808c18.758 18.733 49.149 18.71 67.882-0.045 18.733-18.758 18.714-49.149-0.045-67.882l-328.189-327.763c-0.006-0.006 0.006 0.006 0 0-45.008-44.995-106.064-70.294-169.706-70.294-63.652 0-124.697 25.286-169.706 70.294s-70.294 106.054-70.294 169.706c0 63.651 25.286 124.698 70.294 169.706l392.57 391.431c0.010 0.010 0.019 0.019 0.029 0.029z" />
<glyph unicode="&#xe935;" glyph-name="Passthrough" d="M641.942 833.941c-18.746 18.745-49.139 18.745-67.885 0-18.742-18.745-18.742-49.137 0-67.882l190.061-190.059h-620.118c-26.51 0-48-21.491-48-48s21.49-48 48-48h716.685c49.891 0 74.877 60.32 39.6 95.597l-258.342 258.344zM163.316 416c-49.891 0-74.876-60.32-39.598-95.597l258.343-258.346c18.746-18.742 49.136-18.742 67.882 0 18.746 18.746 18.746 49.139 0 67.885l-190.059 190.058h620.119c26.509 0 48 21.491 48 48s-21.491 48-48 48h-716.688z" />
<glyph unicode="&#xe936;" glyph-name="PencilSimple" d="M672 764.115l-464-464v-156.118h156.118l464 464-156.118 156.118zM203.334 295.45c-0.007-0.006 0.007 0.006 0 0v0zM615.43 843.311c15.005 15.003 35.354 23.431 56.57 23.431s41.565-8.428 56.57-23.431l178.746-178.745c15.002-15.003 23.43-35.353 23.43-56.569s-8.429-41.565-23.43-56.57l-489.373-489.373c-9.002-9.002-21.213-14.058-33.942-14.058h-192c-21.217 0-41.565 8.429-56.569 23.43-15.003 15.005-23.431 35.354-23.431 56.57v178.746c0 10.506 2.069 20.909 6.090 30.614s9.913 18.525 17.342 25.955l479.999 479.999zM510.058 737.941c18.746 18.745 49.139 18.745 67.885 0l224-223.999c18.742-18.746 18.742-49.139 0-67.885-18.746-18.742-49.139-18.742-67.885 0l-224 224.001c-18.742 18.745-18.742 49.137 0 67.882z" />
<glyph unicode="&#xe937;" glyph-name="Placeholder" d="M192 848c-44.183 0-80-35.817-80-80v-640c0-44.182 35.817-80 80-80h640c44.182 0 80 35.818 80 80v640c0 44.183-35.818 80-80 80h-640zM208 528.678v223.322h223.322l-223.322-223.322zM208 211.898l540.102 540.102h-181.053c-0.358-0.383-0.726-0.762-1.101-1.136l-357.949-357.948v-181.018zM816 684.133l-540.133-540.133h181.026l357.955 357.955c0.381 0.381 0.765 0.752 1.152 1.117v181.061zM816 144h-223.344l223.344 223.344v-223.344z" />
<glyph unicode="&#xe938;" glyph-name="Plus" d="M112 448c0 26.509 21.49 48 48 48h704c26.509 0 48-21.491 48-48s-21.491-48-48-48h-704c-26.51 0-48 21.491-48 48zM512 848c26.509 0 48-21.49 48-48v-704c0-26.509-21.491-48-48-48s-48 21.491-48 48v704c0 26.51 21.491 48 48 48z" />
<glyph unicode="&#xe939;" glyph-name="Printer" d="M207.969 800c0 26.51 21.491 48 48 48h511.999c26.509 0 48-21.49 48-48v-160c0-26.509-21.491-48-48-48h-511.999c-26.509 0-48 21.491-48 48v160zM303.969 752v-64h415.999v64h-415.999zM207.969 336c0 26.509 21.491 48 48 48h511.999c26.509 0 48-21.491 48-48v-256c0-26.509-21.491-48-48-48h-511.999c-26.509 0-48 21.491-48 48v256zM303.969 288v-160h415.999v160h-415.999zM181.302 592c-15.472 0-21.333-10.707-21.333-16v-272h96c26.51 0 48-21.491 48-48s-21.49-48-48-48h-144c-26.509 0-48 21.491-48 48v320c0 65.401 56.222 112 117.333 112h661.335c61.11 0 117.331-46.599 117.331-112v-320c0-26.509-21.491-48-48-48h-144c-26.509 0-48 21.491-48 48s21.491 48 48 48h96v272c0 5.293-5.859 16-21.331 16h-661.335zM751.994 432c35.344 0 64 28.653 64 64s-28.656 64-64 64c-35.347 0-64-28.653-64-64s28.653-64 64-64z" />
<glyph unicode="&#xe93a;" glyph-name="Prohibit" d="M242.893 649.223l470.33-470.33c-56.090-42.010-125.75-66.893-201.222-66.893-185.568 0-336 150.432-336 336 0 75.472 24.883 145.133 66.893 201.223zM204.18 751.102c-76.794-77.982-124.18-185.009-124.18-303.102 0-238.586 193.413-432 432-432 118.102 0 225.139 47.395 303.123 124.202 0.826 0.717 1.632 1.472 2.416 2.256 0.787 0.787 1.539 1.594 2.259 2.419 76.806 77.984 124.202 185.018 124.202 303.123 0 238.587-193.414 432-432 432-118.096 0-225.122-47.386-303.104-124.182-0.832-0.726-1.646-1.485-2.438-2.277s-1.552-1.606-2.277-2.439zM310.775 717.106c56.092 42.011 125.753 66.894 201.225 66.894 185.568 0 336-150.432 336-336 0-75.472-24.883-145.133-66.896-201.226l-470.329 470.331zM512 784c-185.568 0-336-150.432-336-336s150.432-336 336-336c185.568 0 336 150.432 336 336s-150.432 336-336 336zM80 448c0 238.587 193.413 432 432 432s432-193.413 432-432c0-238.586-193.414-432-432-432s-432 193.414-432 432z" />
<glyph unicode="&#xe93b;" glyph-name="Question" d="M512 192c35.347 0 64 28.653 64 64s-28.653 64-64 64c-35.347 0-64-28.653-64-64s28.653-64 64-64zM543.216 684.925c-31.040 6.174-63.21 3.005-92.445-9.105s-54.224-32.618-71.805-58.931c-17.584-26.31-26.966-57.245-26.966-88.89 0-26.509 21.491-48 48-48s48 21.491 48 48c0 12.659 3.754 25.030 10.787 35.555 7.030 10.525 17.027 18.73 28.72 23.574 11.696 4.842 24.563 6.109 36.979 3.642 12.413-2.47 23.818-8.566 32.768-17.517s15.046-20.355 17.517-32.768c2.467-12.416 1.2-25.283-3.642-36.979-4.845-11.693-13.050-21.69-23.574-28.72-10.525-7.034-22.896-10.787-35.555-10.787-26.509 0-48-21.491-48-48s21.491-48 48-48c31.645 0 62.579 9.382 88.893 26.966 26.31 17.581 46.819 42.57 58.928 71.805s15.28 61.405 9.104 92.442c-6.173 31.040-21.411 59.549-43.789 81.924-22.374 22.376-50.883 37.615-81.92 43.788zM80 448c0 238.587 193.413 432 432 432s432-193.413 432-432c0-238.586-193.414-432-432-432s-432 193.414-432 432zM512 784c-185.568 0-336-150.432-336-336s150.432-336 336-336c185.568 0 336 150.432 336 336s-150.432 336-336 336z" />
<glyph unicode="&#xe93c;" glyph-name="Refresh" d="M127.347 94.845c-26.509 0-48 21.491-48 48v192c0 26.512 21.49 48 48 48h192c26.509 0 48-21.488 48-48 0-26.509-21.491-48-48-48h-144v-144c0-26.509-21.49-48-48-48zM511.994 143.981c39.923 0 79.453 7.862 116.336 23.139s70.397 37.67 98.624 65.901c18.746 18.746 49.139 18.746 67.885 0 18.742-18.746 18.742-49.139 0-67.885-37.146-37.142-81.242-66.605-129.77-86.707-48.531-20.102-100.547-30.448-153.075-30.448s-104.544 10.346-153.072 30.448c-48.531 20.102-92.627 49.565-129.77 86.707l-135.764 135.766c-18.745 18.746-18.745 49.136 0 67.882s49.137 18.746 67.883 0l135.764-135.763c28.23-28.23 61.741-50.624 98.624-65.901s76.416-23.139 116.336-23.139zM944.646 561.12c0-26.509-21.488-48-48-48h-192c-26.509 0-48 21.491-48 48 0 26.512 21.491 48 48 48h144v144.001c0 26.51 21.491 48 48 48 26.512 0 48-21.49 48-48v-192.001zM930.589 527.181c-18.746-18.746-49.136-18.746-67.882 0l-135.766 135.764c-28.227 28.229-61.741 50.621-98.624 65.899s-76.413 23.14-116.336 23.14c-39.92 0-79.453-7.863-116.336-23.14s-70.394-37.67-98.624-65.899c-18.745-18.745-49.137-18.745-67.882 0s-18.745 49.137 0 67.882c37.144 37.143 81.239 66.607 129.77 86.709 48.528 20.102 100.544 30.448 153.072 30.448s104.544-10.346 153.075-30.448c48.528-20.102 92.624-49.566 129.77-86.709l135.763-135.765c18.746-18.746 18.746-49.136 0-67.882z" />
<glyph unicode="&#xe93d;" glyph-name="Rocket" d="M576 576c0-35.347-28.653-64-64-64s-64 28.653-64 64c0 35.347 28.653 64 64 64s64-28.653 64-64zM461.699 918.032c14.166 11.649 31.946 18.023 50.298 18.023 18.435 0 36.291-6.431 50.486-18.178 40.797-33.232 129.13-115.566 178.115-242.891 16.141-41.962 27.798-88.285 32.288-138.669l117.827-141.392c8.019-9.456 13.683-20.678 16.522-32.752 2.806-11.926 2.778-24.339-0.077-36.246l-49.12-222.426c-2.966-13.242-9.254-25.507-18.269-35.648s-20.461-17.824-33.261-22.323c-12.8-4.502-26.534-5.67-39.91-3.402-13.379 2.269-25.958 7.904-36.56 16.371l-106.877 85.501h-222.314l-106.857-85.485c-10.6-8.47-23.204-14.122-36.581-16.39s-27.112-1.101-39.912 3.402c-12.8 4.499-24.246 12.182-33.26 22.323s-15.301 22.406-18.269 35.648l-0.033 0.15-49.084 222.275c-2.857 11.907-2.885 24.32-0.079 36.246 2.843 12.083 8.514 23.315 16.543 32.778l115.377 138.157c4.229 51.725 16.132 99.229 32.813 142.176 49.462 127.344 138.886 209.652 180.195 242.752zM678.406 511.338c-0.301 2.304-0.435 4.624-0.4 6.941-3.005 45.494-13.165 86.253-27.008 122.238-36.896 95.91-101.734 162.189-139.091 194.487-37.725-32.068-103.6-98.411-140.915-194.482-14.406-37.092-24.832-79.274-27.386-126.513-0.010-1.338-0.077-2.675-0.198-4.010-3.405-76.845 14.061-166.902 68.858-270h199.181c53.923 103.667 70.771 194.17 66.96 271.338zM811.862 339.59l-45.562 54.672c-10.531-59.286-31.258-122.637-65.149-189.712l68.746-54.995 41.965 190.035zM256.287 392.429l-44.139-52.851 41.963-190.026 68.475 54.778c-34.25 66.438-55.374 129.251-66.299 188.099zM400 48c0 26.509 21.491 48 48 48h128c26.509 0 48-21.491 48-48s-21.491-48-48-48h-128c-26.509 0-48 21.491-48 48z" />
<glyph unicode="&#xe93e;" glyph-name="SignOut" d="M662.109 649.946c18.746 18.743 49.139 18.739 67.882-0.009l167.955-168.001c18.739-18.742 18.739-49.13 0-67.872l-167.955-168c-18.742-18.749-49.136-18.752-67.882-0.010-18.749 18.742-18.752 49.136-0.010 67.882l134.029 134.064-134.029 134.064c-18.742 18.746-18.739 49.139 0.010 67.882zM368 448c0 26.509 21.491 48 48 48h447.882c26.509 0 48-21.491 48-48s-21.491-48-48-48h-447.882c-26.509 0-48 21.491-48 48zM208 752h208c26.509 0 48 21.49 48 48s-21.491 48-48 48h-224c-21.217 0-41.566-8.428-56.569-23.431s-23.431-35.351-23.431-56.569v-640c0-21.216 8.428-41.565 23.431-56.57 15.003-15.002 35.351-23.43 56.569-23.43h224c26.509 0 48 21.491 48 48s-21.491 48-48 48h-208v608z" />
<glyph unicode="&#xe93f;" glyph-name="Sort" d="M384.006 338.147c-8.63 0-16.406-5.197-19.709-13.168s-1.478-17.149 4.624-23.248l127.997-128.003c4.003-4 9.427-6.25 15.088-6.25 5.658 0 11.082 2.25 15.085 6.25l128 128c6.102 6.102 7.926 15.277 4.624 23.248-3.302 7.974-11.082 13.171-19.709 13.171h-256zM527.091 715.884c-4.003 4.001-9.427 6.248-15.085 6.248-5.661 0-11.085-2.248-15.088-6.249l-127.997-128.003c-6.102-6.099-7.926-15.277-4.624-23.248s11.078-13.168 19.709-13.168h256c8.627 0 16.406 5.197 19.709 13.171 3.302 7.971 1.478 17.146-4.624 23.248l-128 128z" />
<glyph unicode="&#xe940;" d="M384.006 338.147c-8.63 0-16.406-5.197-19.709-13.168s-1.478-17.149 4.624-23.248l127.997-128.003c4.003-4 9.427-6.25 15.088-6.25 5.658 0 11.082 2.25 15.085 6.25l128 128c6.102 6.102 7.926 15.277 4.624 23.248-3.302 7.974-11.082 13.171-19.709 13.171h-256z" />
<glyph unicode="&#xe941;" d="M527.091 715.884c-4.003 4.001-9.427 6.248-15.085 6.248-5.661 0-11.085-2.248-15.088-6.249l-127.997-128.003c-6.102-6.099-7.926-15.277-4.624-23.248s11.078-13.168 19.709-13.168h256c8.627 0 16.406 5.197 19.709 13.171 3.302 7.971 1.478 17.146-4.624 23.248l-128 128z" />
<glyph unicode="&#xe942;" d="M384.006 338.147c-8.63 0-16.406-5.197-19.709-13.168s-1.478-17.149 4.624-23.248l127.997-128.003c4.003-4 9.427-6.25 15.088-6.25 5.658 0 11.082 2.25 15.085 6.25l128 128c6.102 6.102 7.926 15.277 4.624 23.248-3.302 7.974-11.082 13.171-19.709 13.171h-256z" />
<glyph unicode="&#xe943;" d="M527.091 715.884c-4.003 4.001-9.427 6.248-15.085 6.248-5.661 0-11.085-2.248-15.088-6.249l-127.997-128.003c-6.102-6.099-7.926-15.277-4.624-23.248s11.078-13.168 19.709-13.168h256c8.627 0 16.406 5.197 19.709 13.171 3.302 7.971 1.478 17.146-4.624 23.248l-128 128z" />
<glyph unicode="&#xe944;" glyph-name="Stack" d="M86.547 280.186c13.357 22.899 42.748 30.634 65.647 17.277l359.813-209.891 359.814 209.891c22.899 13.357 52.291 5.622 65.648-17.277s5.622-52.288-17.274-65.648l-384-224c-14.947-8.717-33.427-8.717-48.374 0l-383.999 224c-22.899 13.36-30.633 42.749-17.276 65.648zM86.547 472.186c13.357 22.899 42.748 30.634 65.647 17.277l359.813-209.891 359.814 209.891c22.899 13.357 52.291 5.622 65.648-17.277s5.622-52.288-17.274-65.648l-384-224c-14.947-8.717-33.427-8.717-48.374 0l-383.999 224c-22.899 13.36-30.633 42.749-17.276 65.648zM487.821 905.461c14.947 8.718 33.427 8.718 48.374 0l384-224c14.746-8.602 23.811-24.389 23.811-41.461s-9.066-32.861-23.811-41.462l-384-224c-14.947-8.717-33.427-8.717-48.374 0l-383.999 224c-14.747 8.602-23.814 24.39-23.814 41.462s9.068 32.859 23.814 41.461l383.999 224zM223.27 640l288.736-168.429 288.739 168.429-288.739 168.43-288.736-168.43z" />
<glyph unicode="&#xe945;" glyph-name="StackPort" d="M112 688c0 26.51 21.49 48 48 48h704c26.509 0 48-21.49 48-48s-21.491-48-48-48h-704c-26.51 0-48 21.49-48 48zM112 528c0 26.509 21.49 48 48 48h704c26.509 0 48-21.491 48-48s-21.491-48-48-48h-704c-26.51 0-48 21.491-48 48zM112.031 368c0 26.509 21.49 48 48 48h703.975c26.509 0 48-21.491 48-48s-21.491-48-48-48h-703.975c-26.51 0-48 21.491-48 48zM112.031 208c0 26.509 21.49 48 48 48h703.975c26.509 0 48-21.491 48-48s-21.491-48-48-48h-703.975c-26.51 0-48 21.491-48 48z" />
<glyph unicode="&#xe946;" glyph-name="TrashSimple" d="M159.984 768h704c26.509 0 48-21.49 48-48s-21.491-48-48-48h-704c-26.509 0-48 21.491-48 48s21.49 48 48 48zM304 880c0 26.51 21.491 48 48 48h320c26.509 0 48-21.49 48-48s-21.491-48-48-48h-320c-26.509 0-48 21.49-48 48zM224 768c26.51 0 48-21.49 48-48v-576h480v576c0 26.51 21.491 48 48 48s48-21.49 48-48v-592c0-21.216-8.429-41.565-23.43-56.57-15.005-15.002-35.354-23.43-56.57-23.43h-512c-21.217 0-41.565 8.429-56.569 23.43-15.003 15.005-23.431 35.354-23.431 56.57v592c0 26.51 21.49 48 48 48z" />
<glyph unicode="&#xe947;" glyph-name="TrendDown" d="M62.075 705.941c18.745 18.745 49.137 18.745 67.882 0l254.059-254.060 126.058 126.061c18.746 18.742 49.139 18.742 67.882 0l384-384c18.746-18.746 18.746-49.139 0-67.885-18.742-18.742-49.136-18.742-67.882 0l-350.058 350.061-126.061-126.061c-18.742-18.742-49.136-18.742-67.882 0l-287.999 288c-18.745 18.747-18.745 49.138 0 67.884zM928.016 464c26.509 0 48-21.491 48-48v-256c0-26.509-21.491-48-48-48h-256c-26.509 0-48 21.491-48 48s21.491 48 48 48h208v208c0 26.509 21.491 48 48 48z" />
<glyph unicode="&#xe948;" glyph-name="TrendUp" d="M961.955 769.941c18.746-18.745 18.746-49.137 0-67.882l-384-384.001c-18.742-18.742-49.136-18.742-67.882 0l-126.058 126.061-254.059-254.061c-18.745-18.742-49.137-18.742-67.882 0-18.745 18.746-18.745 49.139 0 67.885l287.999 288c18.746 18.742 49.139 18.742 67.882 0l126.061-126.061 350.058 350.060c18.746 18.745 49.139 18.745 67.882 0zM624.016 736c0 26.51 21.491 48 48 48h256c26.509 0 48-21.49 48-48v-256c0-26.509-21.491-48-48-48s-48 21.491-48 48v208h-208c-26.509 0-48 21.49-48 48z" />
<glyph unicode="&#xe949;" glyph-name="UploadSimple" d="M478.064 833.946c18.742 18.739 49.13 18.739 67.872 0l168-167.956c18.749-18.743 18.752-49.135 0.010-67.881-18.742-18.749-49.136-18.752-67.882-0.010l-134.064 134.028-134.064-134.028c-18.746-18.742-49.139-18.739-67.882 0.010-18.743 18.746-18.739 49.138 0.009 67.881l168.001 167.956zM512 847.882c26.509 0 48-21.49 48-48v-447.882c0-26.509-21.491-48-48-48s-48 21.491-48 48v447.882c0 26.51 21.491 48 48 48zM160 400c26.51 0 48-21.491 48-48v-208h608v208c0 26.509 21.491 48 48 48s48-21.491 48-48v-224c0-21.216-8.429-41.565-23.43-56.57-15.005-15.002-35.354-23.43-56.57-23.43h-640c-21.217 0-41.565 8.429-56.569 23.43-15.003 15.005-23.431 35.354-23.431 56.57v224c0 26.509 21.49 48 48 48z" />
<glyph unicode="&#xe94a;" glyph-name="User" d="M329.158 333.11c-22.392-8.877-44.182-19.405-65.186-31.533-75.406-43.542-138.022-106.166-181.552-181.578-13.253-22.96-5.384-52.317 17.575-65.568 22.959-13.254 52.315-5.386 65.568 17.574 35.105 60.816 85.601 111.322 146.412 146.435 59.745 34.496 127.38 52.944 196.324 53.581 1.232-0.016 2.464-0.022 3.699-0.022 1.232 0 2.464 0.006 3.693 0.022 68.941-0.637 136.573-19.085 196.317-53.581 60.81-35.114 111.306-85.619 146.413-146.435 13.251-22.96 42.608-30.829 65.565-17.574 22.96 13.251 30.829 42.608 17.578 65.568-43.53 75.411-106.147 138.035-181.552 181.578-21.002 12.125-42.787 22.653-65.174 31.53 73.587 55.482 121.162 143.632 121.162 242.893 0 167.895-136.106 304-304 304s-304-136.105-304-304c0-99.258 47.571-187.408 121.158-242.89zM304 576c0 114.875 93.123 208 208 208s208-93.125 208-208c0-113.738-91.29-206.154-204.595-207.971-1.136 0.006-2.275 0.010-3.411 0.010s-2.269-0.003-3.405-0.010c-113.302 1.821-204.589 94.234-204.589 207.971z" />
<glyph unicode="&#xe94b;" glyph-name="Users" d="M608 528c0 141.385-114.614 256-256 256s-256-114.615-256-256c0-78.467 35.304-148.691 90.895-195.651-6.503-2.947-12.936-6.070-19.291-9.373-56.962-29.59-105.966-72.458-142.873-124.976-15.242-21.69-10.015-51.629 11.675-66.87s51.629-10.016 66.871 11.674c28.049 39.914 65.292 72.493 108.583 94.982 42.671 22.166 89.982 33.891 138.047 34.224l2.093-0.010 2.099 0.010c48.064-0.333 95.376-12.058 138.048-34.224 43.293-22.49 80.534-55.069 108.586-94.982 15.242-21.69 45.181-26.915 66.87-11.674s26.915 45.181 11.674 66.87c-36.906 52.518-85.91 95.386-142.874 124.976-6.355 3.302-12.79 6.429-19.296 9.376 55.59 46.96 90.893 117.181 90.893 195.648zM192 528c0 88.365 71.635 160 160 160s160-71.635 160-160c0-87.731-70.608-158.97-158.096-159.99l-1.901 0.006-1.907-0.006c-87.488 1.021-158.096 72.259-158.096 159.99zM678.006 784h-0.147c-23.245-0.071-46.381-3.188-68.819-9.274-25.584-6.939-40.701-33.305-33.76-58.891 6.938-25.585 33.306-40.701 58.89-33.762 14.317 3.883 29.078 5.875 43.91 5.926 42.406-0.019 83.075-16.874 113.062-46.863 30.006-30.007 46.864-70.702 46.864-113.137s-16.858-83.133-46.864-113.136c-29.936-29.939-70.515-46.787-112.842-46.864-0.112 0-0.221 0-0.33 0-26.512-0.016-47.987-21.52-47.971-48.029 0.016-24.845 18.902-45.27 43.098-47.725 1.613-0.163 3.251-0.246 4.909-0.246-0.010 0 0.006 0 0 0 48.781 0.029 96.874-11.693 140.16-34.179 43.29-22.486 80.522-55.072 108.547-94.998 15.229-21.696 45.165-26.941 66.864-11.709 21.696 15.229 26.941 45.165 11.709 66.864-36.886 52.55-85.891 95.44-142.867 125.034-6.352 3.299-12.781 6.422-19.28 9.37 5.478 4.624 10.778 9.491 15.885 14.598 48.010 48.010 74.982 113.126 74.982 181.021s-26.973 133.010-74.982 181.019c-48.010 48.009-113.123 74.98-181.018 74.981z" />
<glyph unicode="&#xe94c;" glyph-name="WifiHigh" d="M511.965 687.984c-141.462 0-277.247-55.639-378.033-154.906-18.887-18.602-49.278-18.371-67.88 0.518-18.602 18.886-18.371 49.277 0.516 67.878 118.745 116.954 278.728 182.509 445.397 182.509s326.65-65.555 445.395-182.509c18.886-18.602 19.117-48.992 0.515-67.878-18.602-18.89-48.992-19.12-67.882-0.518-100.784 99.267-236.57 154.906-378.029 154.906zM269.451 397.181c64.831 63.341 151.871 98.803 242.511 98.803 90.637 0 177.677-35.462 242.509-98.803 18.963-18.528 49.35-18.173 67.878 0.787 18.525 18.963 18.173 49.354-0.79 67.878-82.765 80.864-193.885 126.138-309.597 126.138s-226.834-45.274-309.6-126.138c-18.962-18.525-19.315-48.915-0.789-67.878 18.526-18.96 48.916-19.315 67.877-0.787zM404.826 261.040c28.858 27.562 67.229 42.944 107.136 42.944s78.278-15.382 107.136-42.944c19.171-18.31 49.555-17.616 67.866 1.555 18.31 19.168 17.613 49.552-1.555 67.862-46.72 44.627-108.842 69.526-173.446 69.526s-126.726-24.899-173.443-69.526c-19.171-18.31-19.867-48.694-1.555-67.862 18.31-19.171 48.694-19.866 67.862-1.555zM575.994 159.997c0-35.347-28.656-64-64-64-35.347 0-64 28.653-64 64 0 35.344 28.653 64 64 64 35.344 0 64-28.656 64-64z" />
<glyph unicode="&#xe94d;" glyph-name="WifiLightning" d="M929.011 642.737c1.302-1.482 2.221-3.262 2.672-5.182s0.422-3.923-0.086-5.83c-0.509-1.907-1.478-3.658-2.822-5.101l-168-180c-1.782-1.907-4.138-3.184-6.71-3.632-2.573-0.451-5.219-0.048-7.542 1.142-2.323 1.194-4.195 3.11-5.328 5.462-1.136 2.352-1.472 5.008-0.96 7.568l22 109.994-86.448 32.419c-1.846 0.691-3.494 1.83-4.797 3.312s-2.221 3.261-2.672 5.181c-0.451 1.92-0.419 3.923 0.086 5.83 0.509 1.904 1.478 3.658 2.826 5.101l168 179.999c1.779 1.909 4.134 3.184 6.707 3.633s5.219 0.047 7.542-1.145c2.323-1.192 4.195-3.109 5.328-5.46 1.136-2.351 1.472-5.009 0.96-7.569l-21.997-109.994 86.445-32.417c1.846-0.693 3.494-1.83 4.797-3.312zM511.859 687.999c-141.456 0.31-277.289-55.349-377.852-154.831-18.846-18.643-49.238-18.48-67.881 0.368-18.644 18.845-18.479 49.238 0.367 67.882 118.575 117.298 278.732 182.932 445.523 182.581l-0.157-96zM511.978 304c-39.907 0-78.278-15.382-107.136-42.944-19.168-18.314-49.552-17.616-67.862 1.555-18.312 19.168-17.616 49.552 1.555 67.862 46.717 44.624 108.838 69.526 173.443 69.526s126.726-24.902 173.443-69.526c19.171-18.31 19.869-48.694 1.558-67.862-18.314-19.171-48.698-19.869-67.866-1.555-28.858 27.562-67.229 42.944-107.136 42.944zM269.573 397.283c64.638 63.491 151.688 98.957 242.292 98.717l0.189 96c-115.83 0.288-227.115-45.059-309.752-126.227-18.913-18.576-19.185-48.97-0.609-67.882s48.967-19.184 67.88-0.608zM512 96c35.347 0 64 28.653 64 64s-28.653 64-64 64c-35.347 0-64-28.653-64-64s28.653-64 64-64z" />
<glyph unicode="&#xe94e;" glyph-name="WifiLow" d="M511.962 303.987c-39.907 0-78.278-15.379-107.136-42.944-19.168-18.31-49.552-17.616-67.862 1.555-18.312 19.171-17.615 49.555 1.555 67.866 46.717 44.624 108.838 69.523 173.443 69.523s126.726-24.899 173.446-69.523c19.168-18.31 19.866-48.694 1.555-67.866s-48.694-19.866-67.866-1.555c-28.858 27.565-67.229 42.944-107.136 42.944zM511.994 96c35.347 0 64 28.653 64 64s-28.653 64-64 64c-35.347 0-64-28.653-64-64s28.653-64 64-64z" />
<glyph unicode="&#xe94f;" glyph-name="WifiMedium" d="M511.978 303.987c-39.907 0-78.278-15.379-107.136-42.944-19.171-18.31-49.555-17.616-67.866 1.555s-17.614 49.555 1.555 67.866c46.72 44.624 108.838 69.523 173.446 69.523 64.605 0 126.726-24.899 173.443-69.523 19.171-18.31 19.866-48.694 1.555-67.866s-48.694-19.866-67.866-1.555c-28.854 27.565-67.229 42.944-107.133 42.944zM511.978 495.987c-90.64 0-177.68-35.462-242.511-98.803-18.962-18.525-49.351-18.173-67.877 0.79-18.526 18.96-18.173 49.35 0.789 67.875 82.766 80.867 193.885 126.138 309.6 126.138 115.712 0 226.832-45.27 309.597-126.138 18.963-18.525 19.315-48.915 0.79-67.875-18.528-18.963-48.915-19.315-67.878-0.79-64.832 63.341-151.872 98.803-242.509 98.803zM512.006 96c35.347 0 64 28.653 64 64s-28.653 64-64 64c-35.344 0-64-28.653-64-64s28.656-64 64-64z" />
<glyph unicode="&#xe950;" glyph-name="WifiNone" d="M512 96c35.347 0 64 28.653 64 64s-28.653 64-64 64c-35.347 0-64-28.653-64-64s28.653-64 64-64z" />
<glyph unicode="&#xe951;" glyph-name="WifiSlash" d="M159.644 835.517c19.615 17.832 49.973 16.387 67.805-3.229l640-704c17.834-19.616 16.387-49.974-3.229-67.805-19.616-17.834-49.974-16.387-67.805 3.229l-640.001 703.999c-17.832 19.616-16.387 49.973 3.229 67.805zM334.061 710.706c10.035-24.536-1.715-52.563-26.252-62.601-64.923-26.559-123.996-65.615-173.863-114.947-18.846-18.643-49.237-18.48-67.881 0.365-18.644 18.848-18.48 49.238 0.366 67.882 58.806 58.176 128.468 104.232 205.029 135.553 24.536 10.037 52.563-1.716 62.602-26.252zM479.021 545.546c5.306-25.974-11.446-51.331-37.421-56.637-65.011-13.283-124.785-45.104-172.103-91.622-18.904-18.582-49.295-18.323-67.88 0.579-18.585 18.906-18.325 49.296 0.579 67.882 60.538 59.514 137.013 100.227 220.188 117.219 25.974 5.306 51.331-11.45 56.637-37.421zM611.229 268.112c-29.293 24.355-66.515 37.091-104.586 35.786s-74.333-16.563-101.888-42.864c-19.174-18.307-49.558-17.6-67.866 1.574-18.303 19.178-17.598 49.558 1.578 67.866 44.592 42.566 103.277 67.254 164.886 69.366s121.846-18.499 169.248-57.91c20.384-16.947 23.171-47.213 6.221-67.597-16.947-20.384-47.21-23.168-67.594-6.221zM889.859 533.158c-100.566 99.478-236.4 155.14-377.853 154.83h-0.083c-13.674-0.006-27.184-0.505-40.534-1.493-26.438-1.957-49.456 17.889-51.411 44.326-1.958 26.437 17.888 49.455 44.326 51.412 15.718 1.164 31.565 1.747 47.533 1.755 0.016 0 0.029 0 0.045 0l0.019-48-0.106 48c0.016 0 0.029 0 0.042 0 166.794 0.355 326.957-65.28 445.536-182.583 18.845-18.643 19.008-49.034 0.365-67.882-18.643-18.845-49.034-19.008-67.878-0.365zM627.264 530.006c10.678 24.266 39.005 35.277 63.27 24.598 48.71-21.437 93.123-51.546 131.075-88.861 18.902-18.586 19.158-48.976 0.573-67.878-18.586-18.906-48.976-19.162-67.878-0.576-29.661 29.162-64.371 52.694-102.442 69.45-24.262 10.678-35.277 39.005-24.598 63.267zM512.003 96c35.347 0 64 28.653 64 64s-28.653 64-64 64c-35.347 0-64-28.653-64-64s28.653-64 64-64z" />
<glyph unicode="&#xe952;" glyph-name="WifiX" d="M511.965 303.987c-39.907 0-78.278-15.379-107.136-42.944-19.171-18.31-49.555-17.616-67.866 1.555s-17.614 49.555 1.555 67.866c46.72 44.624 108.838 69.523 173.446 69.523 64.605 0 126.726-24.899 173.443-69.523 19.171-18.31 19.866-48.694 1.555-67.866s-48.694-19.866-67.866-1.555c-28.854 27.565-67.229 42.944-107.133 42.944zM929.936 769.941c18.746-18.745 18.746-49.137 0-67.882l-192-192.001c-18.746-18.742-49.136-18.742-67.882 0-18.746 18.746-18.746 49.139 0 67.885l192 191.999c18.746 18.745 49.136 18.745 67.882 0zM670.054 769.941c18.746 18.745 49.136 18.745 67.882 0l192-191.999c18.746-18.746 18.746-49.139 0-67.885-18.746-18.742-49.136-18.742-67.882 0l-192 192.001c-18.746 18.745-18.746 49.137 0 67.882zM511.859 687.988c-141.456 0.31-277.289-55.348-377.852-154.83-18.846-18.643-49.238-18.48-67.881 0.368-18.644 18.845-18.479 49.235 0.367 67.878 118.575 117.3 278.732 182.935 445.523 182.584zM511.837 495.987c-90.605 0.243-177.654-35.226-242.292-98.714-18.912-18.576-49.303-18.304-67.88 0.608s-18.304 49.302 0.609 67.878c82.637 81.171 193.922 126.518 309.752 126.227zM511.994 96c35.347 0 64 28.653 64 64s-28.653 64-64 64c-35.344 0-64-28.653-64-64s28.656-64 64-64z" />
<glyph unicode="&#xe953;" glyph-name="X" d="M833.942 769.941c18.742-18.745 18.742-49.137 0-67.882l-576.001-576.001c-18.745-18.742-49.137-18.742-67.882 0-18.745 18.746-18.745 49.139 0 67.885l575.999 575.999c18.746 18.745 49.139 18.745 67.885 0zM190.059 769.941c18.745 18.745 49.137 18.745 67.882 0l576.001-575.999c18.742-18.746 18.742-49.139 0-67.885-18.746-18.742-49.139-18.742-67.885 0l-575.999 576.001c-18.745 18.745-18.745 49.137 0 67.882z" />
<glyph unicode="&#xe954;" glyph-name="XCircle" d="M512 784c-185.568 0-336-150.432-336-336s150.432-336 336-336c185.568 0 336 150.432 336 336s-150.432 336-336 336zM80 448c0 238.587 193.413 432 432 432s432-193.413 432-432c0-238.586-193.414-432-432-432s-432 193.414-432 432zM673.942 609.942c18.742-18.746 18.742-49.139 0-67.885l-256-256c-18.746-18.742-49.139-18.742-67.885 0-18.742 18.746-18.742 49.139 0 67.885l256 256c18.746 18.742 49.139 18.742 67.885 0zM350.058 609.942c18.746 18.742 49.139 18.742 67.885 0l256-256c18.742-18.746 18.742-49.139 0-67.885-18.746-18.742-49.139-18.742-67.885 0l-256 256c-18.742 18.746-18.742 49.139 0 67.885z" />
<glyph unicode="&#xe955;" glyph-name="Admin" d="M512 618.667c0-59.793-30.75-112.405-77.299-142.886 33.762-11.102 64.866-28.058 92.109-49.673-16.644-21.918-26.069-48.998-26.069-77.423v-185.399c0-4.693 0.256-9.348 0.759-13.952h-416.166c-23.564 0-42.667 19.102-42.667 42.667 0 132.343 86.076 244.578 205.298 283.78-46.548 30.481-77.298 83.093-77.298 142.886 0 94.257 76.41 170.667 170.667 170.667 94.255 0 170.667-76.41 170.667-170.667zM810.645 478.332l160.559-92.698c13.201-7.62 21.333-21.709 21.333-36.949v-185.399c0-15.245-8.132-29.329-21.333-36.954l-160.559-92.698c-13.201-7.62-29.466-7.62-42.667 0l-160.563 92.698c-13.201 7.625-21.333 21.709-21.333 36.954v185.399c0 15.241 8.132 29.329 21.333 36.949l160.563 92.698c13.201 7.625 29.466 7.625 42.667 0zM789.333 181.299c41.237 0 74.667 33.429 74.667 74.667s-33.429 74.667-74.667 74.667c-41.237 0-74.667-33.429-74.667-74.667s33.429-74.667 74.667-74.667z" />
<glyph unicode="&#xe956;" glyph-name="Environmental" d="M515.533 728.547c3.844 23.248 25.809 38.977 49.058 35.131 134.656-22.276 240.858-128.474 263.13-263.134 3.849-23.249-11.883-45.21-35.127-49.058-23.249-3.844-45.214 11.883-49.058 35.132-16.316 98.612-94.259 176.558-192.87 192.871-23.249 3.846-38.98 25.809-35.132 49.058zM231.46 444.476c23.248 3.844 45.212-11.883 49.058-35.132 16.313-98.611 94.259-176.559 192.869-192.87 23.249-3.849 38.98-25.809 35.132-49.058-3.844-23.249-25.809-38.976-49.058-35.132-134.658 22.276-240.855 128.474-263.132 263.134-3.846 23.249 11.883 45.21 35.131 49.058zM504.922 876.713c1.933 23.485 22.532 40.958 46.020 39.027 228.181-18.76 410.048-200.625 428.809-428.811 1.929-23.484-15.543-44.087-39.027-46.016-23.484-1.933-44.087 15.539-46.020 39.027-15.339 186.573-164.181 335.414-350.754 350.753-23.484 1.931-40.96 22.534-39.027 46.019zM83.298 455.087c23.485 1.933 44.088-15.539 46.019-39.027 15.339-186.573 164.18-335.415 350.755-350.754 23.484-1.929 40.956-22.532 39.027-46.016-1.933-23.488-22.537-40.96-46.020-39.027-228.183 18.756-410.049 200.623-428.809 428.809-1.931 23.484 15.542 44.087 39.027 46.016zM640 448c0-70.692-57.308-128-128-128s-128 57.308-128 128c0 70.692 57.308 128 128 128s128-57.308 128-128z" />
<glyph unicode="&#xe957;" glyph-name="Inventory" d="M725.333 277.333h128c23.564 0 42.667-19.103 42.667-42.667v-128c0-23.564-19.103-42.667-42.667-42.667h-128c-23.564 0-42.667 19.103-42.667 42.667v128c0 23.564 19.103 42.667 42.667 42.667zM405.333 512c0 23.564 19.103 42.667 42.667 42.667h128c23.565 0 42.667-19.103 42.667-42.667v-128c0-23.565-19.102-42.667-42.667-42.667h-128c-23.564 0-42.667 19.102-42.667 42.667v128zM405.333 234.667c0 23.565 19.103 42.667 42.667 42.667h128c23.565 0 42.667-19.102 42.667-42.667v-128c0-23.565-19.102-42.667-42.667-42.667h-128c-23.564 0-42.667 19.102-42.667 42.667v128zM128 789.333c0 23.564 19.103 42.667 42.667 42.667h128c23.564 0 42.667-19.103 42.667-42.667v-128c0-23.564-19.103-42.667-42.667-42.667h-128c-23.564 0-42.667 19.103-42.667 42.667v128zM128 512c0 23.564 19.103 42.667 42.667 42.667h128c23.564 0 42.667-19.103 42.667-42.667v-128c0-23.565-19.103-42.667-42.667-42.667h-128c-23.564 0-42.667 19.102-42.667 42.667v128zM128 234.667c0 23.565 19.103 42.667 42.667 42.667h128c23.564 0 42.667-19.102 42.667-42.667v-128c0-23.565-19.103-42.667-42.667-42.667h-128c-23.564 0-42.667 19.102-42.667 42.667v128z" />
<glyph unicode="&#xe958;" glyph-name="Systems-Manager, SelectedFalse" d="M128 789.333c-23.564 0-42.667-19.103-42.667-42.667v-426.667c0-23.565 19.103-42.667 42.667-42.667h490.667v298.667c0 35.346 28.655 64 64 64h128v106.667c0 23.564-19.102 42.667-42.667 42.667h-640zM554.667 234.667h-170.667v-85.333h-64c-11.782 0-21.333-9.553-21.333-21.333s9.551-21.333 21.333-21.333h277.333c11.78 0 21.333 9.553 21.333 21.333s-9.553 21.333-21.333 21.333h-42.667v85.333zM725.333 576h170.667c23.565 0 42.667-19.103 42.667-42.667v-384c0-23.565-19.102-42.667-42.667-42.667h-170.667c-23.565 0-42.667 19.102-42.667 42.667v384c0 23.564 19.102 42.667 42.667 42.667zM810.667 170.667c17.673 0 32 14.327 32 32s-14.327 32-32 32c-17.673 0-32-14.327-32-32s14.327-32 32-32z" />
</font>
</defs>
</svg>
