<svg width="800" height="800" viewBox="0 0 48 48" xmlns="http://www.w3.org/2000/svg"><g data-name="Layer 2"><path fill="none" d="M0 0h48v48H0z" data-name="invisible box"/><g data-name="Q3 icons"><path d="M45.6 18.7L41 14.9V7.5a1 1 0 00-.6-.9l-9.9-4.5h-.4l-.6.2L24 5.9l-5.5-3.7-.6-.2h-.4L7.6 6.6a1 1 0 00-.6.9v7.4l-4.6 3.8a.8.8 0 00-.4.8v9a.8.8 0 00.4.8L7 33.1v7.4a1 1 0 00.6.9l9.9 4.5h.4l.6-.2 5.5-3.6 5.5 3.7.6.2h.4l9.9-4.5a1 1 0 00.6-.9v-7.5l4.6-3.8a.8.8 0 00.4-.7v-9.2a.8.8 0 00-.4-.7zm-5.1 6.8H42v1.6l-3.5 2.8-.4.3-.4-.2a1.4 1.4 0 00-2 .7 1.5 1.5 0 00.6 2l.7.3v5.4l-6.6 3.1-4.2-2.8-.7-.5V25.5H27a1.5 1.5 0 000-3h-1.5V9.7l.7-.5 4.2-2.8L37 9.5v5.4l-.7.3a1.5 1.5 0 00-.6 2 1.4 1.4 0 001.3.9l.7-.2.4-.2.4.3 3.5 2.9v1.6h-1.5a1.5 1.5 0 000 3zm-19.5 0h1.5v12.8l-.7.5-4.2 2.8-6.6-3.1v-5.4l.7-.3a1.5 1.5 0 00.6-2 1.4 1.4 0 00-2-.7l-.4.2-.4-.3L6 27.1v-1.6h1.5a1.5 1.5 0 000-3H6v-1.6l3.5-2.8.4-.3.4.2.7.2a1.4 1.4 0 001.3-.9 1.5 1.5 0 00-.6-2L11 15V9.5l6.6-3.1 4.2 2.8.7.5v12.8H21a1.5 1.5 0 000 3z"/><path d="M13.9 9.9a1.8 1.8 0 000 2.2l2.6 2.5v2.8l-4 4v5.2l4 4v2.8l-2.6 2.5a1.8 1.8 0 000 2.2 1.5 1.5 0 001.1.4 1.5 1.5 0 001.1-.4l3.4-3.5v-5.2l-4-4v-2.8l4-4v-5.2l-3.4-3.5a1.8 1.8 0 00-2.2 0zM31.5 14.6l2.6-2.5a1.8 1.8 0 000-2.2 1.8 1.8 0 00-2.2 0l-3.4 3.5v5.2l4 4v2.8l-4 4v5.2l3.4 3.5a1.7 1.7 0 002.2 0 1.8 1.8 0 000-2.2l-2.6-2.5v-2.8l4-4v-5.2l-4-4z"/></g></g></svg>