<svg width="224" height="224" fill="none" xmlns="http://www.w3.org/2000/svg"><rect opacity=".4" x="52.714" y="80.75" width="27" height="120" rx="13.5" transform="rotate(25 52.714 80.75)" fill="#E0CCFF"/><rect opacity=".2" x="46.036" y="2" width="27" height="90" rx="13.5" transform="rotate(25 46.036 2)" fill="#E0CCFF"/><rect opacity=".3" x="188.116" y="119" width="27" height="48.191" rx="13.5" transform="rotate(25 188.116 119)" fill="#E0CCFF"/><path d="M50.25 89.25c0-21.54 17.46-39 39-39h45.5c21.539 0 39 17.46 39 39v45.5c0 21.539-17.461 39-39 39h-45.5c-21.54 0-39-17.461-39-39v-45.5z" fill="#864AE0"/><path fill-rule="evenodd" clip-rule="evenodd" d="M105.5 139.625V112a6.5 6.5 0 1113 0v27.625a6.5 6.5 0 11-13 0z" fill="#fff"/><path d="M120.125 87.625a8.125 8.125 0 11-16.25 0 8.125 8.125 0 0116.25 0z" fill="#fff"/></svg>