<svg xmlns="http://www.w3.org/2000/svg" xmlns:xlink="http://www.w3.org/1999/xlink" viewBox="0 0 340.88 66.95"><defs><style>.cls-1,.cls-7{fill:#1b54a6;}.cls-2{fill:url(#linear-gradient);}.cls-3{fill:url(#linear-gradient-2);}.cls-4{fill:url(#linear-gradient-3);}.cls-5{fill:url(#linear-gradient-4);}.cls-6{fill:url(#linear-gradient-5);}.cls-7{font-size:53.5px;font-family:MyriadPro-Regular, Myriad Pro;}.cls-8{letter-spacing:0.01em;}</style><linearGradient id="linear-gradient" x1="37.66" y1="423.49" x2="-1.9" y2="356.53" gradientTransform="matrix(1, 0, 0, -1, 0, 415.17)" gradientUnits="userSpaceOnUse"><stop offset="0" stop-color="#3b97d3"/><stop offset="1" stop-color="#71c59c"/></linearGradient><linearGradient id="linear-gradient-2" x1="41.58" y1="421.17" x2="2.02" y2="354.22" xlink:href="#linear-gradient"/><linearGradient id="linear-gradient-3" x1="53.58" y1="414.08" x2="14.02" y2="347.13" xlink:href="#linear-gradient"/><linearGradient id="linear-gradient-4" x1="56.81" y1="412.17" x2="17.25" y2="345.22" xlink:href="#linear-gradient"/><linearGradient id="linear-gradient-5" x1="65.81" y1="406.86" x2="26.25" y2="339.9" xlink:href="#linear-gradient"/></defs><g id="Layer_2" data-name="Layer 2"><g id="Layer_1-2" data-name="Layer 1"><path class="cls-1" d="M22.82,6.09a4.57,4.57,0,1,1-4.56-4.57A4.56,4.56,0,0,1,22.82,6.09Z"/><path class="cls-1" d="M50.21,6.09a4.57,4.57,0,1,1-4.56-4.57A4.56,4.56,0,0,1,50.21,6.09Z"/><path class="cls-1" d="M36.52,19.78A4.57,4.57,0,1,1,32,15.22,4.57,4.57,0,0,1,36.52,19.78Z"/><path class="cls-1" d="M63.91,60.86a4.57,4.57,0,1,1-4.57-4.56A4.57,4.57,0,0,1,63.91,60.86Z"/><path class="cls-1" d="M36.52,47.17A4.57,4.57,0,1,1,32,42.61,4.57,4.57,0,0,1,36.52,47.17Z"/><path class="cls-1" d="M9.13,47.17a4.57,4.57,0,1,1-4.57-4.56A4.57,4.57,0,0,1,9.13,47.17Z"/><path class="cls-1" d="M9.13,60.86A4.57,4.57,0,1,1,4.56,56.3,4.56,4.56,0,0,1,9.13,60.86Z"/><path class="cls-1" d="M9.13,33.48a4.57,4.57,0,1,1-4.57-4.57A4.56,4.56,0,0,1,9.13,33.48Z"/><path class="cls-1" d="M63.91,47.17a4.57,4.57,0,1,1-4.57-4.56A4.58,4.58,0,0,1,63.91,47.17Z"/><path class="cls-1" d="M63.91,33.48a4.57,4.57,0,1,1-4.57-4.57A4.57,4.57,0,0,1,63.91,33.48Z"/><path class="cls-1" d="M63.91,19.78a4.57,4.57,0,1,1-4.57-4.56A4.58,4.58,0,0,1,63.91,19.78Z"/><path class="cls-1" d="M9.13,19.78a4.57,4.57,0,1,1-4.57-4.56A4.57,4.57,0,0,1,9.13,19.78Z"/><path class="cls-2" d="M38,6.09A6.08,6.08,0,0,1,32,12.17h-.37C29.5,12,27.12,12,25.64,13.47s-1.43,3.86-1.31,5.94c0,.12,0,.25,0,.37a6.09,6.09,0,1,1-6.09-6.09l.37,0c2.08.12,4.47.16,5.94-1.31S26,8.54,25.88,6.46c0-.12,0-.25,0-.37A6.09,6.09,0,1,1,38,6.09Z"/><path class="cls-3" d="M24.35,33.48a6.09,6.09,0,1,1-6.09-6.09A6.09,6.09,0,0,1,24.35,33.48Z"/><path class="cls-4" d="M24.35,60.86a6.09,6.09,0,1,1-6.09-6.08A6.09,6.09,0,0,1,24.35,60.86Z"/><path class="cls-5" d="M37.84,35a1,1,0,0,1,1.92,0,6.09,6.09,0,1,0,0-3.11,1,1,0,0,1-1.92,0,6.09,6.09,0,1,0,0,3.11Z"/><path class="cls-6" d="M45.65,53.26a6.09,6.09,0,1,0-6.09-6.09c0,.13,0,.25,0,.37.13,2.08.17,4.47-1.31,5.94s-3.85,1.44-5.93,1.31H32A6.09,6.09,0,1,0,38,60.86c0-.12,0-.24,0-.37-.13-2.08-.16-4.46,1.31-5.93s3.86-1.44,5.94-1.31Z"/><text class="cls-7" transform="translate(72.87 51.74)"><tspan class="cls-8">M</tspan><tspan x="43.33" y="0">odelsmith</tspan></text></g></g></svg>