<svg xmlns="http://www.w3.org/2000/svg" xmlns:xlink="http://www.w3.org/1999/xlink" viewBox="0 0 360 66.95"><defs><linearGradient id="prefix__linear-gradient" x1="37.66" y1="423.49" x2="-1.9" y2="356.53" gradientTransform="matrix(1 0 0 -1 0 415.17)" gradientUnits="userSpaceOnUse"><stop offset="0" stop-color="#3b97d3"/><stop offset="1" stop-color="#71c59c"/></linearGradient><linearGradient id="prefix__linear-gradient-2" x1="41.58" y1="421.17" x2="2.02" y2="354.22" xlink:href="#prefix__linear-gradient"/><linearGradient id="prefix__linear-gradient-3" x1="53.58" y1="414.08" x2="14.02" y2="347.13" xlink:href="#prefix__linear-gradient"/><linearGradient id="prefix__linear-gradient-4" x1="56.81" y1="412.17" x2="17.25" y2="345.22" xlink:href="#prefix__linear-gradient"/><linearGradient id="prefix__linear-gradient-5" x1="65.81" y1="406.86" x2="26.25" y2="339.9" xlink:href="#prefix__linear-gradient"/><style>.prefix__cls-1{fill:#1b54a6}</style></defs><g id="prefix__Layer_2" data-name="Layer 2"><g id="prefix__Layer_1-2" data-name="Layer 1"><path class="prefix__cls-1" d="M22.82 6.09a4.57 4.57 0 11-4.56-4.57 4.56 4.56 0 014.56 4.57zM50.21 6.09a4.57 4.57 0 11-4.56-4.57 4.56 4.56 0 014.56 4.57zM36.52 19.78A4.57 4.57 0 1132 15.22a4.57 4.57 0 014.52 4.56zM63.91 60.86a4.57 4.57 0 11-4.57-4.56 4.57 4.57 0 014.57 4.56zM36.52 47.17A4.57 4.57 0 1132 42.61a4.57 4.57 0 014.52 4.56zM9.13 47.17a4.57 4.57 0 11-4.57-4.56 4.57 4.57 0 014.57 4.56zM9.13 60.86a4.57 4.57 0 11-4.57-4.56 4.56 4.56 0 014.57 4.56zM9.13 33.48a4.57 4.57 0 11-4.57-4.57 4.56 4.56 0 014.57 4.57zM63.91 47.17a4.57 4.57 0 11-4.57-4.56 4.58 4.58 0 014.57 4.56zM63.91 33.48a4.57 4.57 0 11-4.57-4.57 4.57 4.57 0 014.57 4.57zM63.91 19.78a4.57 4.57 0 11-4.57-4.56 4.58 4.58 0 014.57 4.56zM9.13 19.78a4.57 4.57 0 11-4.57-4.56 4.57 4.57 0 014.57 4.56z"/><path d="M38 6.09a6.08 6.08 0 01-6 6.08h-.37c-2.13-.17-4.51-.17-5.99 1.3s-1.43 3.86-1.31 5.94v.37a6.09 6.09 0 11-6.09-6.09h.37c2.08.12 4.47.16 5.94-1.31S26 8.54 25.88 6.46v-.37a6.09 6.09 0 1112.12 0z" fill="url(#prefix__linear-gradient)"/><path d="M24.35 33.48a6.09 6.09 0 11-6.09-6.09 6.09 6.09 0 016.09 6.09z" fill="url(#prefix__linear-gradient-2)"/><path d="M24.35 60.86a6.09 6.09 0 11-6.09-6.08 6.09 6.09 0 016.09 6.08z" fill="url(#prefix__linear-gradient-3)"/><path d="M37.84 35a1 1 0 011.92 0 6.09 6.09 0 100-3.11 1 1 0 01-1.92 0 6.09 6.09 0 100 3.11z" fill="url(#prefix__linear-gradient-4)"/><path d="M45.65 53.26a6.09 6.09 0 10-6.09-6.09v.37c.13 2.08.17 4.47-1.31 5.94s-3.85 1.44-5.93 1.31H32a6.09 6.09 0 106 6.07v-.37c-.13-2.08-.16-4.46 1.31-5.93s3.86-1.44 5.94-1.31z" fill="url(#prefix__linear-gradient-5)"/><text transform="translate(72.87 51.74)" font-size="53.5" font-family="Roboto,sans-serif" font-weight="300" fill="#1b54a6"> <tspan class="cls-8">ModelSmith</tspan></text></g></g></svg>