<svg width="260" height="30" viewBox="0 0 260 30" fill="none" xmlns="http://www.w3.org/2000/svg">
<circle cx="7.91994" cy="3.12001" r="1.98" fill="white"/>
<circle cx="19.8001" cy="3.12001" r="1.98" fill="white"/>
<circle cx="13.8599" cy="9.06001" r="1.98" fill="white"/>
<circle cx="25.74" cy="26.88" r="1.98" fill="white"/>
<circle cx="13.8599" cy="20.94" r="1.98" fill="white"/>
<circle cx="1.98" cy="20.94" r="1.98" fill="white"/>
<circle cx="1.98" cy="26.88" r="1.98" fill="white"/>
<circle cx="1.98" cy="15" r="1.98" fill="white"/>
<circle cx="25.74" cy="20.94" r="1.98" fill="white"/>
<circle cx="25.74" cy="15" r="1.98" fill="white"/>
<circle cx="25.74" cy="9.06001" r="1.98" fill="white"/>
<path d="M3.96 9.0602C3.96 10.1537 3.07352 11.0402 1.98 11.0402C0.886475 11.0402 0 10.1537 0 9.0602C0 7.96668 0.886475 7.0802 1.98 7.0802C3.07352 7.0802 3.96 7.96668 3.96 9.0602Z" fill="white"/>
<path fill-rule="evenodd" clip-rule="evenodd" d="M16.5 3.12004C16.5 4.57807 15.318 5.76004 13.86 5.76004C13.8056 5.76004 13.7516 5.75839 13.6981 5.75515C12.7966 5.7006 11.762 5.68478 11.1234 6.32341C10.4848 6.96203 10.5006 7.99659 10.5551 8.89809C10.5584 8.95166 10.56 9.00565 10.56 9.06003C10.56 10.5181 9.37806 11.7 7.92003 11.7C6.462 11.7 5.28003 10.5181 5.28003 9.06003C5.28003 7.602 6.462 6.42003 7.92003 6.42003C7.97443 6.42003 8.02845 6.42168 8.08204 6.42492C8.98354 6.4795 10.0181 6.49534 10.6567 5.85671C11.2953 5.21809 11.2795 4.18355 11.2249 3.28206C11.2217 3.22847 11.22 3.17444 11.22 3.12004C11.22 1.66201 12.402 0.480042 13.86 0.480042C15.318 0.480042 16.5 1.66201 16.5 3.12004ZM10.5601 15C10.5601 16.4581 9.37811 17.64 7.92008 17.64C6.46205 17.64 5.28008 16.4581 5.28008 15C5.28008 13.542 6.46205 12.36 7.92008 12.36C9.37811 12.36 10.5601 13.542 10.5601 15ZM10.5601 26.88C10.5601 28.338 9.37811 29.52 7.92008 29.52C6.46205 29.52 5.28008 28.338 5.28008 26.88C5.28008 25.422 6.46205 24.24 7.92008 24.24C9.37811 24.24 10.5601 25.422 10.5601 26.88ZM16.4133 15.6739C16.4642 15.4803 16.6299 15.33 16.8301 15.33C17.0303 15.33 17.1959 15.4803 17.2469 15.6739C17.5447 16.8055 18.5749 17.64 19.8001 17.64C21.2581 17.64 22.4401 16.4581 22.4401 15C22.4401 13.542 21.2581 12.36 19.8001 12.36C18.5749 12.36 17.5447 13.1945 17.2469 14.3261C17.1959 14.5197 17.0303 14.67 16.8301 14.67C16.6299 14.67 16.4642 14.5197 16.4133 14.3261C16.1154 13.1945 15.0852 12.36 13.8601 12.36C12.402 12.36 11.2201 13.542 11.2201 15C11.2201 16.4581 12.402 17.64 13.8601 17.64C15.0852 17.64 16.1154 16.8055 16.4133 15.6739ZM19.8001 23.58C21.2581 23.58 22.4401 22.398 22.4401 20.94C22.4401 19.482 21.2581 18.3 19.8001 18.3C18.342 18.3 17.1601 19.482 17.1601 20.94C17.1601 20.9944 17.1617 21.0484 17.165 21.102C17.2195 22.0035 17.2354 23.0381 16.5968 23.6767C15.9581 24.3153 14.9236 24.2995 14.0221 24.2449C13.9685 24.2416 13.9145 24.24 13.8601 24.24C12.402 24.24 11.2201 25.422 11.2201 26.88C11.2201 28.338 12.402 29.52 13.8601 29.52C15.3181 29.52 16.5001 28.338 16.5001 26.88C16.5001 26.8256 16.4984 26.7716 16.4952 26.7181C16.4406 25.8166 16.4248 24.782 17.0634 24.1434C17.7021 23.5047 18.7366 23.5206 19.6381 23.5751C19.6917 23.5784 19.7457 23.58 19.8001 23.58Z" fill="#29A9DC"/>
<path d="M41.444 6.00646C41.668 6.00646 41.9013 6.06246 42.144 6.17446C42.3866 6.28646 42.5733 6.44513 42.704 6.65046L49.816 17.4865L48.612 17.4305L55.864 6.65046C56.1626 6.22113 56.5453 6.00646 57.012 6.00646C57.3853 6.00646 57.712 6.14646 57.992 6.42646C58.2906 6.68779 58.44 7.02379 58.44 7.43446V24.2065C58.44 24.6171 58.3093 24.9625 58.048 25.2425C57.7866 25.5038 57.4413 25.6345 57.012 25.6345C56.564 25.6345 56.2 25.5038 55.92 25.2425C55.6586 24.9625 55.528 24.6171 55.528 24.2065V10.0105L56.424 10.2065L50.264 19.5865C50.1333 19.7545 49.9653 19.9038 49.76 20.0345C49.5546 20.1465 49.34 20.1931 49.116 20.1745C48.9106 20.1931 48.696 20.1465 48.472 20.0345C48.2666 19.9038 48.0986 19.7545 47.968 19.5865L42.032 10.3465L42.704 9.22646V24.2065C42.704 24.6171 42.5733 24.9625 42.312 25.2425C42.0693 25.5038 41.7426 25.6345 41.332 25.6345C40.94 25.6345 40.6133 25.5038 40.352 25.2425C40.1093 24.9625 39.988 24.6171 39.988 24.2065V7.43446C39.988 7.04246 40.128 6.70646 40.408 6.42646C40.7066 6.14646 41.052 6.00646 41.444 6.00646ZM76.8154 18.2705C76.8154 19.7638 76.4887 21.0891 75.8354 22.2465C75.1821 23.3851 74.2954 24.2811 73.1754 24.9345C72.0554 25.5878 70.7954 25.9145 69.3954 25.9145C67.9954 25.9145 66.7354 25.5878 65.6154 24.9345C64.4954 24.2811 63.5994 23.3851 62.9274 22.2465C62.2741 21.0891 61.9474 19.7638 61.9474 18.2705C61.9474 16.7585 62.2741 15.4331 62.9274 14.2945C63.5994 13.1371 64.4954 12.2318 65.6154 11.5785C66.7354 10.9065 67.9954 10.5705 69.3954 10.5705C70.7954 10.5705 72.0554 10.9065 73.1754 11.5785C74.2954 12.2318 75.1821 13.1371 75.8354 14.2945C76.4887 15.4331 76.8154 16.7585 76.8154 18.2705ZM74.0154 18.2705C74.0154 17.2438 73.8101 16.3571 73.3994 15.6105C72.9887 14.8451 72.4287 14.2478 71.7194 13.8185C71.0287 13.3705 70.2541 13.1465 69.3954 13.1465C68.5367 13.1465 67.7527 13.3705 67.0434 13.8185C66.3341 14.2478 65.7741 14.8451 65.3634 15.6105C64.9527 16.3571 64.7474 17.2438 64.7474 18.2705C64.7474 19.2598 64.9527 20.1371 65.3634 20.9025C65.7741 21.6678 66.3341 22.2651 67.0434 22.6945C67.7527 23.1238 68.5367 23.3385 69.3954 23.3385C70.2541 23.3385 71.0287 23.1238 71.7194 22.6945C72.4287 22.2651 72.9887 21.6678 73.3994 20.9025C73.8101 20.1371 74.0154 19.2598 74.0154 18.2705ZM92.0527 4.91446C92.4633 4.91446 92.7993 5.04513 93.0607 5.30646C93.322 5.56779 93.4527 5.91313 93.4527 6.34246V24.2065C93.4527 24.6171 93.322 24.9625 93.0607 25.2425C92.7993 25.5038 92.4633 25.6345 92.0527 25.6345C91.6607 25.6345 91.3247 25.5038 91.0447 25.2425C90.7833 24.9625 90.6527 24.6171 90.6527 24.2065V22.1905L91.2407 22.2185C91.2407 22.5545 91.1007 22.9371 90.8207 23.3665C90.5593 23.7771 90.1953 24.1785 89.7287 24.5705C89.262 24.9625 88.7113 25.2891 88.0767 25.5505C87.442 25.7931 86.7607 25.9145 86.0327 25.9145C84.7447 25.9145 83.5873 25.5878 82.5607 24.9345C81.534 24.2625 80.722 23.3571 80.1247 22.2185C79.5273 21.0611 79.2287 19.7358 79.2287 18.2425C79.2287 16.7491 79.5273 15.4331 80.1247 14.2945C80.722 13.1371 81.5247 12.2318 82.5327 11.5785C83.5593 10.9065 84.698 10.5705 85.9487 10.5705C86.7327 10.5705 87.4607 10.7011 88.1327 10.9625C88.8233 11.2238 89.4207 11.5598 89.9247 11.9705C90.4287 12.3811 90.8207 12.8198 91.1007 13.2865C91.3807 13.7345 91.5207 14.1638 91.5207 14.5745L90.6527 14.6585V6.34246C90.6527 5.93179 90.7833 5.59579 91.0447 5.33446C91.3247 5.05446 91.6607 4.91446 92.0527 4.91446ZM86.3407 23.3385C87.2367 23.3385 88.0113 23.1145 88.6647 22.6665C89.3367 22.2185 89.8593 21.6118 90.2327 20.8465C90.606 20.0811 90.7927 19.2131 90.7927 18.2425C90.7927 17.2718 90.606 16.4038 90.2327 15.6385C89.8593 14.8731 89.3367 14.2665 88.6647 13.8185C87.9927 13.3705 87.218 13.1465 86.3407 13.1465C85.482 13.1465 84.7167 13.3705 84.0447 13.8185C83.3913 14.2665 82.8687 14.8731 82.4767 15.6385C82.1033 16.4038 81.9167 17.2718 81.9167 18.2425C81.9167 19.2131 82.1033 20.0811 82.4767 20.8465C82.8687 21.6118 83.3913 22.2185 84.0447 22.6665C84.7167 23.1145 85.482 23.3385 86.3407 23.3385ZM104.235 25.9145C102.686 25.9145 101.342 25.5971 100.203 24.9625C99.0646 24.3091 98.178 23.4225 97.5433 22.3025C96.9273 21.1638 96.6193 19.8665 96.6193 18.4105C96.6193 16.7678 96.9459 15.3678 97.5993 14.2105C98.2713 13.0345 99.1393 12.1385 100.203 11.5225C101.267 10.8878 102.397 10.5705 103.591 10.5705C104.506 10.5705 105.374 10.7571 106.195 11.1305C107.017 11.4851 107.745 11.9891 108.379 12.6425C109.033 13.2771 109.546 14.0331 109.919 14.9105C110.293 15.7691 110.489 16.7118 110.507 17.7385C110.489 18.1118 110.339 18.4198 110.059 18.6625C109.779 18.9051 109.453 19.0265 109.079 19.0265H98.1873L97.5153 16.6465H108.043L107.511 17.1505V16.4505C107.474 15.7971 107.259 15.2278 106.867 14.7425C106.475 14.2385 105.99 13.8558 105.411 13.5945C104.833 13.3145 104.226 13.1745 103.591 13.1745C103.031 13.1745 102.49 13.2678 101.967 13.4545C101.463 13.6225 101.006 13.9025 100.595 14.2945C100.203 14.6865 99.886 15.2091 99.6433 15.8625C99.4193 16.4971 99.3073 17.2905 99.3073 18.2425C99.3073 19.2691 99.522 20.1651 99.9513 20.9305C100.381 21.6958 100.959 22.2931 101.687 22.7225C102.415 23.1331 103.218 23.3385 104.095 23.3385C104.786 23.3385 105.355 23.2731 105.803 23.1425C106.251 22.9931 106.625 22.8158 106.923 22.6105C107.222 22.4051 107.483 22.2091 107.707 22.0225C107.987 21.8545 108.267 21.7705 108.547 21.7705C108.883 21.7705 109.163 21.8918 109.387 22.1345C109.611 22.3585 109.723 22.6291 109.723 22.9465C109.723 23.3571 109.518 23.7305 109.107 24.0665C108.603 24.5518 107.903 24.9811 107.007 25.3545C106.13 25.7278 105.206 25.9145 104.235 25.9145ZM116.696 24.2065C116.696 24.6171 116.556 24.9625 116.276 25.2425C116.015 25.5038 115.688 25.6345 115.296 25.6345C114.904 25.6345 114.568 25.5038 114.288 25.2425C114.027 24.9625 113.896 24.6171 113.896 24.2065V6.34246C113.896 5.93179 114.036 5.59579 114.316 5.33446C114.596 5.05446 114.932 4.91446 115.324 4.91446C115.735 4.91446 116.061 5.05446 116.304 5.33446C116.565 5.59579 116.696 5.93179 116.696 6.34246V24.2065ZM127.192 25.9145C125.848 25.9145 124.653 25.7278 123.608 25.3545C122.562 24.9811 121.564 24.3651 120.612 23.5065C120.406 23.3571 120.248 23.1798 120.136 22.9745C120.042 22.7505 119.996 22.5265 119.996 22.3025C119.996 21.9478 120.126 21.6305 120.388 21.3505C120.649 21.0705 120.976 20.9305 121.368 20.9305C121.666 20.9305 121.946 21.0331 122.208 21.2385C122.917 21.8918 123.654 22.3865 124.42 22.7225C125.204 23.0585 126.118 23.2265 127.164 23.2265C127.91 23.2265 128.592 23.1051 129.208 22.8625C129.842 22.6198 130.346 22.2931 130.72 21.8825C131.093 21.4718 131.28 20.9958 131.28 20.4545C131.28 19.7825 131.084 19.2318 130.692 18.8025C130.318 18.3545 129.768 17.9905 129.04 17.7105C128.33 17.4118 127.472 17.1598 126.464 16.9545C125.53 16.7865 124.69 16.5531 123.944 16.2545C123.216 15.9558 122.59 15.5825 122.068 15.1345C121.545 14.6678 121.144 14.1171 120.864 13.4825C120.584 12.8478 120.444 12.1105 120.444 11.2705C120.444 10.1318 120.742 9.15179 121.34 8.33046C121.937 7.50913 122.749 6.87446 123.776 6.42646C124.802 5.97846 125.96 5.75446 127.248 5.75446C128.424 5.75446 129.525 5.94113 130.552 6.31446C131.578 6.66913 132.409 7.15446 133.044 7.77046C133.492 8.16246 133.716 8.58246 133.716 9.03046C133.716 9.36646 133.576 9.68379 133.296 9.98246C133.034 10.2625 132.726 10.4025 132.372 10.4025C132.11 10.4025 131.886 10.3278 131.7 10.1785C131.401 9.86113 131 9.58113 130.496 9.33846C129.992 9.07713 129.45 8.86246 128.872 8.69446C128.312 8.52646 127.77 8.44246 127.248 8.44246C126.408 8.44246 125.689 8.56379 125.092 8.80646C124.494 9.03046 124.037 9.34779 123.72 9.75846C123.402 10.1505 123.244 10.6171 123.244 11.1585C123.244 11.7931 123.421 12.3158 123.776 12.7265C124.149 13.1371 124.662 13.4731 125.316 13.7345C125.969 13.9771 126.716 14.2011 127.556 14.4065C128.582 14.6305 129.497 14.8825 130.3 15.1625C131.121 15.4425 131.812 15.8065 132.372 16.2545C132.932 16.6838 133.361 17.2251 133.66 17.8785C133.958 18.5318 134.108 19.3438 134.108 20.3145C134.108 21.4345 133.79 22.4145 133.156 23.2545C132.521 24.0945 131.681 24.7478 130.636 25.2145C129.609 25.6811 128.461 25.9145 127.192 25.9145ZM144.634 10.6545C146.016 10.6545 147.08 10.9998 147.826 11.6905C148.573 12.3625 149.068 13.2771 149.31 14.4345L148.862 14.2945L149.058 13.8465C149.301 13.3611 149.665 12.8758 150.15 12.3905C150.654 11.8865 151.252 11.4758 151.942 11.1585C152.633 10.8225 153.37 10.6545 154.154 10.6545C155.442 10.6545 156.441 10.9345 157.15 11.4945C157.86 12.0358 158.354 12.7731 158.634 13.7065C158.914 14.6211 159.054 15.6478 159.054 16.7865V24.2065C159.054 24.6171 158.924 24.9625 158.662 25.2425C158.401 25.5038 158.065 25.6345 157.654 25.6345C157.262 25.6345 156.926 25.5038 156.646 25.2425C156.385 24.9625 156.254 24.6171 156.254 24.2065V16.8145C156.254 16.1611 156.161 15.5638 155.974 15.0225C155.806 14.4811 155.498 14.0518 155.05 13.7345C154.621 13.3985 154.024 13.2305 153.258 13.2305C152.53 13.2305 151.877 13.3985 151.298 13.7345C150.738 14.0518 150.3 14.4811 149.982 15.0225C149.665 15.5638 149.506 16.1611 149.506 16.8145V24.2065C149.506 24.6171 149.376 24.9625 149.114 25.2425C148.853 25.5038 148.517 25.6345 148.106 25.6345C147.696 25.6345 147.36 25.5038 147.098 25.2425C146.837 24.9625 146.706 24.6171 146.706 24.2065V16.7865C146.706 16.1331 146.613 15.5358 146.426 14.9945C146.258 14.4531 145.96 14.0238 145.53 13.7065C145.101 13.3891 144.504 13.2305 143.738 13.2305C143.01 13.2305 142.366 13.3891 141.806 13.7065C141.246 14.0238 140.808 14.4531 140.49 14.9945C140.192 15.5358 140.042 16.1331 140.042 16.7865V24.2065C140.042 24.6171 139.902 24.9625 139.622 25.2425C139.361 25.5038 139.034 25.6345 138.642 25.6345C138.232 25.6345 137.896 25.5038 137.634 25.2425C137.373 24.9625 137.242 24.6171 137.242 24.2065V12.3345C137.242 11.9238 137.373 11.5878 137.634 11.3265C137.896 11.0465 138.232 10.9065 138.642 10.9065C139.034 10.9065 139.361 11.0465 139.622 11.3265C139.902 11.5878 140.042 11.9238 140.042 12.3345V13.9865L139.51 14.2945C139.641 13.8838 139.856 13.4638 140.154 13.0345C140.453 12.6051 140.826 12.2131 141.274 11.8585C141.741 11.5038 142.254 11.2145 142.814 10.9905C143.374 10.7665 143.981 10.6545 144.634 10.6545ZM165.605 24.2065C165.605 24.6171 165.474 24.9625 165.213 25.2425C164.952 25.5038 164.616 25.6345 164.205 25.6345C163.813 25.6345 163.477 25.5038 163.197 25.2425C162.936 24.9625 162.805 24.6171 162.805 24.2065V12.2225C162.805 11.8118 162.936 11.4758 163.197 11.2145C163.477 10.9345 163.813 10.7945 164.205 10.7945C164.616 10.7945 164.952 10.9345 165.213 11.2145C165.474 11.4758 165.605 11.8118 165.605 12.2225V24.2065ZM164.177 8.94646C163.636 8.94646 163.244 8.85313 163.001 8.66646C162.758 8.46113 162.637 8.12513 162.637 7.65846V7.21046C162.637 6.74379 162.768 6.41713 163.029 6.23046C163.29 6.04379 163.682 5.95046 164.205 5.95046C164.765 5.95046 165.166 6.05313 165.409 6.25846C165.652 6.44513 165.773 6.76246 165.773 7.21046V7.65846C165.773 8.14379 165.642 8.47979 165.381 8.66646C165.138 8.85313 164.737 8.94646 164.177 8.94646ZM169.175 11.0745H175.755C176.129 11.0745 176.437 11.2051 176.679 11.4665C176.941 11.7091 177.071 12.0171 177.071 12.3905C177.071 12.7451 176.941 13.0438 176.679 13.2865C176.437 13.5291 176.129 13.6505 175.755 13.6505H169.175C168.802 13.6505 168.485 13.5291 168.223 13.2865C167.981 13.0251 167.859 12.7171 167.859 12.3625C167.859 11.9891 167.981 11.6811 168.223 11.4385C168.485 11.1958 168.802 11.0745 169.175 11.0745ZM172.115 7.43446C172.526 7.43446 172.862 7.57446 173.123 7.85446C173.385 8.11579 173.515 8.45179 173.515 8.86246V21.8545C173.515 22.1905 173.571 22.4611 173.683 22.6665C173.795 22.8718 173.945 23.0118 174.131 23.0865C174.337 23.1611 174.542 23.1985 174.747 23.1985C174.953 23.1985 175.13 23.1611 175.279 23.0865C175.447 23.0118 175.643 22.9745 175.867 22.9745C176.091 22.9745 176.297 23.0771 176.483 23.2825C176.67 23.4878 176.763 23.7678 176.763 24.1225C176.763 24.5705 176.521 24.9345 176.035 25.2145C175.55 25.4945 175.027 25.6345 174.467 25.6345C174.15 25.6345 173.777 25.6065 173.347 25.5505C172.918 25.4945 172.498 25.3545 172.087 25.1305C171.695 24.9065 171.369 24.5518 171.107 24.0665C170.846 23.5625 170.715 22.8625 170.715 21.9665V8.86246C170.715 8.45179 170.846 8.11579 171.107 7.85446C171.387 7.57446 171.723 7.43446 172.115 7.43446ZM187.592 10.6545C188.88 10.6545 189.879 10.9345 190.588 11.4945C191.297 12.0358 191.792 12.7731 192.072 13.7065C192.371 14.6398 192.52 15.6665 192.52 16.7865V24.2065C192.52 24.6171 192.38 24.9625 192.1 25.2425C191.839 25.5038 191.512 25.6345 191.12 25.6345C190.709 25.6345 190.373 25.5038 190.112 25.2425C189.851 24.9625 189.72 24.6171 189.72 24.2065V16.7865C189.72 16.1331 189.627 15.5358 189.44 14.9945C189.272 14.4531 188.964 14.0238 188.516 13.7065C188.087 13.3891 187.48 13.2305 186.696 13.2305C185.968 13.2305 185.315 13.3891 184.736 13.7065C184.176 14.0238 183.737 14.4531 183.42 14.9945C183.121 15.5358 182.972 16.1331 182.972 16.7865V24.2065C182.972 24.6171 182.832 24.9625 182.552 25.2425C182.291 25.5038 181.964 25.6345 181.572 25.6345C181.161 25.6345 180.825 25.5038 180.564 25.2425C180.303 24.9625 180.172 24.6171 180.172 24.2065V6.34246C180.172 5.93179 180.303 5.59579 180.564 5.33446C180.825 5.05446 181.161 4.91446 181.572 4.91446C181.964 4.91446 182.291 5.05446 182.552 5.33446C182.832 5.59579 182.972 5.93179 182.972 6.34246V13.9865L182.468 14.2665C182.599 13.8558 182.813 13.4358 183.112 13.0065C183.429 12.5771 183.812 12.1851 184.26 11.8305C184.727 11.4758 185.24 11.1958 185.8 10.9905C186.36 10.7665 186.957 10.6545 187.592 10.6545Z" fill="white"/>
</svg>
